G04*
G04 #@! TF.GenerationSoftware,Altium Limited,Altium Designer,23.1.1 (15)*
G04*
G04 Layer_Color=128*
%FSLAX44Y44*%
%MOMM*%
G71*
G04*
G04 #@! TF.SameCoordinates,268351B6-6D58-47A7-88F6-7EDC03A6DC4B*
G04*
G04*
G04 #@! TF.FilePolarity,Positive*
G04*
G01*
G75*
%ADD10C,0.1270*%
D10*
X18500Y232200D02*
X27500D01*
X23000Y227700D02*
Y236700D01*
X18500Y257600D02*
X27500D01*
X23000Y253100D02*
Y262100D01*
X18500Y410000D02*
X27500D01*
X23000Y405500D02*
Y414500D01*
X18500Y384600D02*
X27500D01*
X23000Y380100D02*
Y389100D01*
X18500Y359200D02*
X27500D01*
X23000Y354700D02*
Y363700D01*
X18500Y333800D02*
X27500D01*
X23000Y329300D02*
Y338300D01*
X18500Y308400D02*
X27500D01*
X23000Y303900D02*
Y312900D01*
X18500Y283000D02*
X27500D01*
X23000Y278500D02*
Y287500D01*
X18500Y181400D02*
X27500D01*
X23000Y176900D02*
Y185900D01*
X18500Y206800D02*
X27500D01*
X23000Y202300D02*
Y211300D01*
X44300Y134620D02*
X57300D01*
X50800Y128120D02*
Y141120D01*
X44300Y83820D02*
X57300D01*
X50800Y77320D02*
Y90320D01*
X600560Y184404D02*
X613560D01*
X607060Y177904D02*
Y190904D01*
X600560Y133604D02*
X613560D01*
X607060Y127104D02*
Y140104D01*
X600560Y368554D02*
X613560D01*
X607060Y362054D02*
Y375054D01*
X600560Y317754D02*
X613560D01*
X607060Y311254D02*
Y324254D01*
X240212Y308012D02*
X243212D01*
X241712Y306512D02*
Y309512D01*
X255992Y308012D02*
X258992D01*
X257492Y306512D02*
Y309512D01*
X270842Y308012D02*
X273842D01*
X272342Y306512D02*
Y309512D01*
X270842Y319320D02*
X273842D01*
X272342Y317820D02*
Y320820D01*
X255992Y319320D02*
X258992D01*
X257492Y317820D02*
Y320820D01*
X240212Y319320D02*
X243212D01*
X241712Y317820D02*
Y320820D01*
X240562Y342138D02*
X243562D01*
X242062Y340638D02*
Y343638D01*
X256342Y342138D02*
X259342D01*
X257842Y340638D02*
Y343638D01*
X271192Y342138D02*
X274192D01*
X272692Y340638D02*
Y343638D01*
X271192Y330831D02*
X274192D01*
X272692Y329331D02*
Y332331D01*
X256342Y330831D02*
X259342D01*
X257842Y329331D02*
Y332331D01*
X240562Y330831D02*
X243562D01*
X242062Y329331D02*
Y332331D01*
X239800Y195500D02*
X242800D01*
X241300Y194000D02*
Y197000D01*
X255580Y195500D02*
X258580D01*
X257080Y194000D02*
Y197000D01*
X270430Y195500D02*
X273430D01*
X271930Y194000D02*
Y197000D01*
X270430Y206808D02*
X273430D01*
X271930Y205308D02*
Y208308D01*
X255580Y206808D02*
X258580D01*
X257080Y205308D02*
Y208308D01*
X239800Y206808D02*
X242800D01*
X241300Y205308D02*
Y208308D01*
X239450Y183989D02*
X242450D01*
X240950Y182489D02*
Y185489D01*
X255230Y183989D02*
X258230D01*
X256730Y182489D02*
Y185489D01*
X270080Y183989D02*
X273080D01*
X271580Y182489D02*
Y185489D01*
X270080Y172682D02*
X273080D01*
X271580Y171182D02*
Y174182D01*
X255230Y172682D02*
X258230D01*
X256730Y171182D02*
Y174182D01*
X239450Y172682D02*
X242450D01*
X240950Y171182D02*
Y174182D01*
X130863Y263173D02*
X133863D01*
X132363Y261673D02*
Y264673D01*
X141756Y257048D02*
X144756D01*
X143256Y255548D02*
Y258548D01*
X130863Y291084D02*
X133863D01*
X132363Y289584D02*
Y292584D01*
X314350Y192498D02*
X317350D01*
X315850Y190998D02*
Y193998D01*
X317682Y122718D02*
X320682D01*
X319182Y121218D02*
Y124218D01*
X63023Y265935D02*
X66023D01*
X64523Y264435D02*
Y267435D01*
X63016Y350047D02*
X66016D01*
X64516Y348548D02*
Y351548D01*
X63016Y324844D02*
X66016D01*
X64516Y323344D02*
Y326344D01*
X63016Y299641D02*
X66016D01*
X64516Y298141D02*
Y301141D01*
X63016Y274437D02*
X66016D01*
X64516Y272937D02*
Y275937D01*
X105180Y82801D02*
X108180D01*
X106680Y81301D02*
Y84301D01*
X116582Y54226D02*
X119582D01*
X118082Y52726D02*
Y55726D01*
X116582Y63751D02*
X119582D01*
X118082Y62251D02*
Y65251D01*
X105180Y73276D02*
X108180D01*
X106680Y71776D02*
Y74776D01*
X116582Y73276D02*
X119582D01*
X118082Y71776D02*
Y74776D01*
X105180Y92326D02*
X108180D01*
X106680Y90826D02*
Y93826D01*
X116582Y82801D02*
X119582D01*
X118082Y81301D02*
Y84301D01*
X105180Y63751D02*
X108180D01*
X106680Y62251D02*
Y65251D01*
X105180Y54226D02*
X108180D01*
X106680Y52726D02*
Y55726D01*
X116582Y92326D02*
X119582D01*
X118082Y90826D02*
Y93826D01*
X116582Y452120D02*
X119582D01*
X118082Y450620D02*
Y453620D01*
X105180Y414020D02*
X108180D01*
X106680Y412520D02*
Y415520D01*
X105180Y423545D02*
X108180D01*
X106680Y422045D02*
Y425045D01*
X116582Y442595D02*
X119582D01*
X118082Y441095D02*
Y444095D01*
X105180Y452120D02*
X108180D01*
X106680Y450620D02*
Y453620D01*
X116582Y433070D02*
X119582D01*
X118082Y431570D02*
Y434570D01*
X105180Y433070D02*
X108180D01*
X106680Y431570D02*
Y434570D01*
X116582Y423545D02*
X119582D01*
X118082Y422045D02*
Y425045D01*
X116582Y414020D02*
X119582D01*
X118082Y412520D02*
Y415520D01*
X105180Y442595D02*
X108180D01*
X106680Y441095D02*
Y444095D01*
X155852Y291508D02*
X158852D01*
X157352Y290008D02*
Y293008D01*
X156232Y304510D02*
X159232D01*
X157732Y303010D02*
Y306010D01*
X270280Y271834D02*
X273280D01*
X271780Y270334D02*
Y273334D01*
X255230Y272010D02*
X258230D01*
X256730Y270510D02*
Y273510D01*
X262660Y263202D02*
X265660D01*
X264160Y261702D02*
Y264702D01*
X247420Y263202D02*
X250420D01*
X248920Y261702D02*
Y264702D01*
X270280Y254510D02*
X273280D01*
X271780Y253010D02*
Y256010D01*
X255230Y254510D02*
X258230D01*
X256730Y253010D02*
Y256010D01*
X262660Y246010D02*
X265660D01*
X264160Y244510D02*
Y247510D01*
X247420Y246010D02*
X250420D01*
X248920Y244510D02*
Y247510D01*
X239800Y272010D02*
X242800D01*
X241300Y270510D02*
Y273510D01*
X239800Y254510D02*
X242800D01*
X241300Y253010D02*
Y256010D01*
X270280Y237260D02*
X273280D01*
X271780Y235760D02*
Y238760D01*
X255230Y237260D02*
X258230D01*
X256730Y235760D02*
Y238760D01*
X239800Y237260D02*
X242800D01*
X241300Y235760D02*
Y238760D01*
X311397Y272809D02*
X314397D01*
X312897Y271309D02*
Y274309D01*
X311442Y234069D02*
X314442D01*
X312942Y232568D02*
Y235569D01*
X216350Y187488D02*
X219350D01*
X217850Y185988D02*
Y188988D01*
X216350Y319532D02*
X219350D01*
X217850Y318032D02*
Y321032D01*
X313716Y314543D02*
X316716D01*
X315216Y313043D02*
Y316043D01*
X318032Y381000D02*
X321032D01*
X319532Y379500D02*
Y382500D01*
X112802Y200624D02*
X115802D01*
X114302Y199124D02*
Y202124D01*
X150228Y215508D02*
X153228D01*
X151728Y214008D02*
Y217008D01*
X189043Y175222D02*
X192043D01*
X190543Y173722D02*
Y176722D01*
X178121Y175349D02*
X181121D01*
X179621Y173849D02*
Y176849D01*
X633035Y72136D02*
X636035D01*
X634535Y70636D02*
Y73636D01*
X632933Y420624D02*
X635933D01*
X634433Y419124D02*
Y422124D01*
X539103Y232916D02*
X542103D01*
X540603Y231416D02*
Y234416D01*
X539266Y266484D02*
X542266D01*
X540766Y264984D02*
Y267984D01*
X163256Y276260D02*
X166256D01*
X164756Y274760D02*
Y277760D01*
X151246Y250352D02*
X154246D01*
X152746Y248852D02*
Y251852D01*
M02*
