G04*
G04 #@! TF.GenerationSoftware,Altium Limited,Altium Designer,23.1.1 (15)*
G04*
G04 Layer_Color=8388736*
%FSLAX44Y44*%
%MOMM*%
G71*
G04*
G04 #@! TF.SameCoordinates,268351B6-6D58-47A7-88F6-7EDC03A6DC4B*
G04*
G04*
G04 #@! TF.FilePolarity,Negative*
G04*
G01*
G75*
%ADD22R,0.7450X0.5672*%
%ADD23R,6.6016X2.4016*%
%ADD24R,3.7032X4.2032*%
%ADD25R,1.0090X0.8820*%
%ADD26R,0.8820X1.0090*%
%ADD27R,0.7550X0.5772*%
%ADD28R,4.3132X4.5632*%
%ADD29R,1.8782X0.6532*%
%ADD30R,1.1560X1.6640*%
%ADD31C,1.7032*%
%ADD32R,1.7032X1.7032*%
%ADD33R,2.7032X2.7032*%
%ADD34C,2.7032*%
%ADD35C,0.6000*%
D22*
X82900Y359177D02*
D03*
Y349779D02*
D03*
Y333602D02*
D03*
Y324204D02*
D03*
Y308653D02*
D03*
Y299255D02*
D03*
Y283195D02*
D03*
Y273797D02*
D03*
X124460Y220599D02*
D03*
Y211201D02*
D03*
X114300D02*
D03*
Y220599D02*
D03*
D23*
X252578Y430000D02*
D03*
X150582D02*
D03*
Y70206D02*
D03*
X252578D02*
D03*
D24*
X418994Y440000D02*
D03*
X513994D02*
D03*
X419858Y184912D02*
D03*
X514858D02*
D03*
X418334Y316484D02*
D03*
X513334D02*
D03*
X418994Y60000D02*
D03*
X513994D02*
D03*
D25*
X340000Y215380D02*
D03*
Y230620D02*
D03*
X340000Y290874D02*
D03*
Y275634D02*
D03*
D26*
X177545Y215510D02*
D03*
X162305D02*
D03*
X183388Y291510D02*
D03*
X168148D02*
D03*
X183386Y304510D02*
D03*
X168146D02*
D03*
X300228Y181356D02*
D03*
X315468D02*
D03*
X384302Y260788D02*
D03*
X369062D02*
D03*
X384302Y246126D02*
D03*
X369062D02*
D03*
X299974Y325120D02*
D03*
X315214D02*
D03*
D27*
X179620Y185926D02*
D03*
Y195324D02*
D03*
X190541Y185799D02*
D03*
Y195197D02*
D03*
D28*
X256730Y253510D02*
D03*
D29*
X295610Y302260D02*
D03*
Y295760D02*
D03*
Y289260D02*
D03*
Y282760D02*
D03*
Y276260D02*
D03*
Y269760D02*
D03*
Y263260D02*
D03*
Y256760D02*
D03*
Y250260D02*
D03*
Y243760D02*
D03*
Y237260D02*
D03*
Y230760D02*
D03*
Y224260D02*
D03*
Y217760D02*
D03*
Y211260D02*
D03*
Y204760D02*
D03*
X217850D02*
D03*
Y211260D02*
D03*
Y217760D02*
D03*
Y224260D02*
D03*
Y230760D02*
D03*
Y237260D02*
D03*
Y243760D02*
D03*
Y250260D02*
D03*
Y256760D02*
D03*
Y263260D02*
D03*
Y269760D02*
D03*
Y276260D02*
D03*
Y282760D02*
D03*
Y289260D02*
D03*
Y295760D02*
D03*
Y302260D02*
D03*
D30*
X319278Y160782D02*
D03*
X298958D02*
D03*
X319182Y139700D02*
D03*
X298862D02*
D03*
X319230Y366776D02*
D03*
X298910D02*
D03*
X319232Y345694D02*
D03*
X298912D02*
D03*
X551180Y266484D02*
D03*
X571500D02*
D03*
X634697Y86106D02*
D03*
X614377D02*
D03*
X551180Y232918D02*
D03*
X571500D02*
D03*
X634492Y407162D02*
D03*
X614172D02*
D03*
D31*
X23000Y232200D02*
D03*
Y257600D02*
D03*
Y384600D02*
D03*
Y359200D02*
D03*
Y333800D02*
D03*
Y308400D02*
D03*
Y283000D02*
D03*
Y181400D02*
D03*
Y206800D02*
D03*
D32*
Y410000D02*
D03*
D33*
X50800Y134620D02*
D03*
X607060Y133604D02*
D03*
Y317754D02*
D03*
D34*
X50800Y83820D02*
D03*
X607060Y184404D02*
D03*
Y368554D02*
D03*
D35*
X241712Y308012D02*
D03*
X257492D02*
D03*
X272342D02*
D03*
Y319320D02*
D03*
X257492D02*
D03*
X241712D02*
D03*
X242062Y342138D02*
D03*
X257842D02*
D03*
X272692D02*
D03*
Y330831D02*
D03*
X257842D02*
D03*
X242062D02*
D03*
X241300Y195500D02*
D03*
X257080D02*
D03*
X271930D02*
D03*
Y206808D02*
D03*
X257080D02*
D03*
X241300D02*
D03*
X240950Y183989D02*
D03*
X256730D02*
D03*
X271580D02*
D03*
Y172682D02*
D03*
X256730D02*
D03*
X240950D02*
D03*
X132363Y263173D02*
D03*
X143256Y257048D02*
D03*
X132363Y291084D02*
D03*
X315850Y192498D02*
D03*
X319182Y122718D02*
D03*
X64523Y265935D02*
D03*
X64516Y350047D02*
D03*
Y324844D02*
D03*
Y299641D02*
D03*
Y274437D02*
D03*
X106680Y82801D02*
D03*
X118082Y54226D02*
D03*
Y63751D02*
D03*
X106680Y73276D02*
D03*
X118082D02*
D03*
X106680Y92326D02*
D03*
X118082Y82801D02*
D03*
X106680Y63751D02*
D03*
Y54226D02*
D03*
X118082Y92326D02*
D03*
Y452120D02*
D03*
X106680Y414020D02*
D03*
Y423545D02*
D03*
X118082Y442595D02*
D03*
X106680Y452120D02*
D03*
X118082Y433070D02*
D03*
X106680D02*
D03*
X118082Y423545D02*
D03*
Y414020D02*
D03*
X106680Y442595D02*
D03*
X157352Y291508D02*
D03*
X157732Y304510D02*
D03*
X271780Y271834D02*
D03*
X256730Y272010D02*
D03*
X264160Y263202D02*
D03*
X248920D02*
D03*
X271780Y254510D02*
D03*
X256730D02*
D03*
X264160Y246010D02*
D03*
X248920D02*
D03*
X241300Y272010D02*
D03*
Y254510D02*
D03*
X271780Y237260D02*
D03*
X256730D02*
D03*
X241300D02*
D03*
X312897Y272809D02*
D03*
X312942Y234069D02*
D03*
X217850Y187488D02*
D03*
Y319532D02*
D03*
X315216Y314543D02*
D03*
X319532Y381000D02*
D03*
X114302Y200624D02*
D03*
X151728Y215508D02*
D03*
X190543Y175222D02*
D03*
X179621Y175349D02*
D03*
X634535Y72136D02*
D03*
X634433Y420624D02*
D03*
X540603Y232916D02*
D03*
X540766Y266484D02*
D03*
X164756Y276260D02*
D03*
X152746Y250352D02*
D03*
M02*
