G04*
G04 #@! TF.GenerationSoftware,Altium Limited,Altium Designer,23.1.1 (15)*
G04*
G04 Layer_Color=65535*
%FSLAX44Y44*%
%MOMM*%
G71*
G04*
G04 #@! TF.SameCoordinates,268351B6-6D58-47A7-88F6-7EDC03A6DC4B*
G04*
G04*
G04 #@! TF.FilePolarity,Positive*
G04*
G01*
G75*
%ADD10C,0.1270*%
%ADD11C,0.2540*%
%ADD12C,0.0032*%
%ADD13C,0.2000*%
G36*
X91772Y165650D02*
X78803D01*
Y167671D01*
X91772D01*
Y165650D01*
D02*
G37*
G36*
X549480Y313944D02*
X530020D01*
Y316976D01*
X549480D01*
Y313944D01*
D02*
G37*
G36*
X541668Y375498D02*
X548296D01*
Y372713D01*
X541668D01*
Y366014D01*
X538848D01*
Y372713D01*
X532220D01*
Y375498D01*
X538848D01*
Y382126D01*
X541668D01*
Y375498D01*
D02*
G37*
G36*
X550334Y184912D02*
X530873D01*
Y187944D01*
X550334D01*
Y184912D01*
D02*
G37*
G36*
X544208Y134960D02*
X550836D01*
Y132175D01*
X544208D01*
Y125476D01*
X541388D01*
Y132175D01*
X534760D01*
Y134960D01*
X541388D01*
Y141588D01*
X544208D01*
Y134960D01*
D02*
G37*
G36*
X541139Y355069D02*
X541457D01*
X542197Y355034D01*
X542973Y354928D01*
X543819Y354823D01*
X544594Y354646D01*
X544982Y354540D01*
X545299Y354435D01*
X545335D01*
X545370Y354399D01*
X545582Y354294D01*
X545899Y354153D01*
X546287Y353906D01*
X546710Y353589D01*
X547168Y353166D01*
X547591Y352672D01*
X548014Y352108D01*
Y352073D01*
X548049Y352037D01*
X548190Y351826D01*
X548331Y351473D01*
X548543Y351015D01*
X548719Y350486D01*
X548895Y349852D01*
X549001Y349182D01*
X549036Y348441D01*
Y348406D01*
Y348336D01*
Y348195D01*
X549001Y348018D01*
Y347771D01*
X548966Y347525D01*
X548825Y346925D01*
X548614Y346220D01*
X548331Y345480D01*
X547908Y344740D01*
X547626Y344387D01*
X547344Y344035D01*
X547309Y343999D01*
X547274Y343964D01*
X547168Y343858D01*
X547027Y343752D01*
X546851Y343611D01*
X546639Y343470D01*
X546357Y343294D01*
X546075Y343083D01*
X545723Y342906D01*
X545335Y342730D01*
X544912Y342519D01*
X544453Y342342D01*
X543924Y342201D01*
X543396Y342025D01*
X542796Y341919D01*
X542162Y341813D01*
X542232Y341778D01*
X542373Y341708D01*
X542585Y341567D01*
X542867Y341426D01*
X543502Y341038D01*
X543819Y340791D01*
X544101Y340579D01*
X544171Y340509D01*
X544348Y340333D01*
X544630Y340051D01*
X544982Y339698D01*
X545370Y339204D01*
X545828Y338676D01*
X546287Y338041D01*
X546780Y337336D01*
X550976Y330708D01*
X546956D01*
X543748Y335785D01*
Y335820D01*
X543678Y335891D01*
X543607Y335996D01*
X543502Y336137D01*
X543255Y336525D01*
X542937Y337019D01*
X542550Y337547D01*
X542162Y338112D01*
X541774Y338640D01*
X541421Y339134D01*
X541386Y339169D01*
X541280Y339310D01*
X541104Y339522D01*
X540857Y339769D01*
X540328Y340297D01*
X540047Y340544D01*
X539764Y340756D01*
X539729Y340791D01*
X539659Y340826D01*
X539518Y340897D01*
X539306Y341003D01*
X539095Y341108D01*
X538848Y341214D01*
X538284Y341390D01*
X538248D01*
X538178Y341426D01*
X538037D01*
X537861Y341461D01*
X537614Y341496D01*
X537332D01*
X536944Y341531D01*
X532784D01*
Y330708D01*
X529540D01*
Y355105D01*
X540857D01*
X541139Y355069D01*
D02*
G37*
G36*
X538409Y153767D02*
X550431D01*
Y150876D01*
X535165D01*
Y175273D01*
X538409D01*
Y153767D01*
D02*
G37*
G36*
X87008Y45981D02*
X91284D01*
Y43068D01*
X87008D01*
Y38862D01*
X84165D01*
Y43068D01*
X79912D01*
Y45981D01*
X84165D01*
Y50187D01*
X87008D01*
Y45981D01*
D02*
G37*
%LPC*%
G36*
X540470Y352390D02*
X532784D01*
Y344316D01*
X540047D01*
X540470Y344352D01*
X540963Y344387D01*
X541527Y344422D01*
X542091Y344493D01*
X542655Y344599D01*
X543149Y344740D01*
X543219Y344775D01*
X543360Y344845D01*
X543572Y344951D01*
X543854Y345092D01*
X544171Y345304D01*
X544489Y345550D01*
X544806Y345868D01*
X545053Y346220D01*
X545088Y346255D01*
X545159Y346397D01*
X545264Y346608D01*
X545405Y346890D01*
X545511Y347207D01*
X545617Y347560D01*
X545687Y347983D01*
X545723Y348406D01*
Y348441D01*
Y348477D01*
X545687Y348688D01*
X545652Y349005D01*
X545582Y349428D01*
X545405Y349852D01*
X545194Y350345D01*
X544876Y350803D01*
X544453Y351262D01*
X544383Y351297D01*
X544207Y351438D01*
X543924Y351614D01*
X543466Y351826D01*
X542937Y352037D01*
X542232Y352214D01*
X541421Y352355D01*
X540470Y352390D01*
D02*
G37*
%LPD*%
D10*
X269652Y413236D02*
X276764D01*
X273208Y409680D02*
Y416792D01*
X136810Y443811D02*
Y494770D01*
X240950D01*
X266350Y469370D01*
Y443811D02*
Y469370D01*
Y390630D02*
Y416030D01*
X240950Y365230D02*
X266350Y390630D01*
X136810Y365230D02*
X240950D01*
X136810D02*
Y416189D01*
Y5436D02*
Y56395D01*
Y5436D02*
X240950D01*
X266350Y30836D01*
Y56236D01*
Y84017D02*
Y109576D01*
X240950Y134976D02*
X266350Y109576D01*
X136810Y134976D02*
X240950D01*
X136810Y84017D02*
Y134976D01*
X273208Y49886D02*
Y56998D01*
X269652Y53442D02*
X276764D01*
X4800Y58420D02*
Y160020D01*
Y58420D02*
X102800D01*
Y160020D01*
X4800D02*
X102800D01*
X334666Y210554D02*
X345334D01*
Y218428D01*
X334666Y210554D02*
Y218428D01*
Y235446D02*
X345334D01*
Y227572D02*
Y235446D01*
X334666Y227572D02*
Y235446D01*
X78836Y346604D02*
Y362352D01*
X86964D01*
X78836Y346604D02*
X86964D01*
Y362352D01*
X78836Y321029D02*
Y336777D01*
X86964D01*
X78836Y321029D02*
X86964D01*
Y336777D01*
X78836Y296080D02*
Y311828D01*
X86964D01*
X78836Y296080D02*
X86964D01*
Y311828D01*
X78836Y270622D02*
Y286370D01*
X86964D01*
X78836Y270622D02*
X86964D01*
Y286370D01*
X120396Y208026D02*
Y223774D01*
X128524D01*
X120396Y208026D02*
X128524D01*
Y223774D01*
X118364Y208026D02*
Y223774D01*
X110236Y208026D02*
X118364D01*
X110236Y223774D02*
X118364D01*
X110236Y208026D02*
Y223774D01*
X182371Y210176D02*
Y220844D01*
X174497D02*
X182371D01*
X174497Y210176D02*
X182371D01*
X157479D02*
Y220844D01*
X165353D01*
X157479Y210176D02*
X165353D01*
X175555Y182751D02*
X183683D01*
X175555D02*
Y187831D01*
X183683Y182751D02*
Y187831D01*
X175555Y198499D02*
X183683D01*
X175555Y193419D02*
Y198499D01*
X183683Y193419D02*
Y198499D01*
X186478Y182624D02*
X194606D01*
X186478D02*
Y187704D01*
X194606Y182624D02*
Y187704D01*
X186478Y198372D02*
X194606D01*
X186478Y193292D02*
Y198372D01*
X194606Y193292D02*
Y198372D01*
X188214Y286176D02*
Y296844D01*
X180340D02*
X188214D01*
X180340Y286176D02*
X188214D01*
X163322D02*
Y296844D01*
X171196D01*
X163322Y286176D02*
X171196D01*
X188212Y299176D02*
Y309844D01*
X180338D02*
X188212D01*
X180338Y299176D02*
X188212D01*
X163320D02*
Y309844D01*
X171194D01*
X163320Y299176D02*
X171194D01*
X295402Y176022D02*
Y186690D01*
Y176022D02*
X303276D01*
X295402Y186690D02*
X303276D01*
X320294Y176022D02*
Y186690D01*
X312420Y176022D02*
X320294D01*
X312420Y186690D02*
X320294D01*
X315214Y169418D02*
X325374D01*
X315214Y152146D02*
X325374D01*
Y169418D01*
X292862D02*
X303022D01*
X292862Y152146D02*
X303022D01*
X292862D02*
Y169418D01*
X315118Y148336D02*
X325278D01*
X315118Y131064D02*
X325278D01*
Y148336D01*
X292766D02*
X302926D01*
X292766Y131064D02*
X302926D01*
X292766D02*
Y148336D01*
X315166Y375412D02*
X325326D01*
X315166Y358140D02*
X325326D01*
Y375412D01*
X292814D02*
X302974D01*
X292814Y358140D02*
X302974D01*
X292814D02*
Y375412D01*
X315168Y354330D02*
X325328D01*
X315168Y337058D02*
X325328D01*
Y354330D01*
X292816D02*
X302976D01*
X292816Y337058D02*
X302976D01*
X292816D02*
Y354330D01*
X389128Y255454D02*
Y266122D01*
X381254D02*
X389128D01*
X381254Y255454D02*
X389128D01*
X364236D02*
Y266122D01*
X372110D01*
X364236Y255454D02*
X372110D01*
X334666Y295700D02*
X345334D01*
X334666Y287826D02*
Y295700D01*
X345334Y287826D02*
Y295700D01*
X334666Y270808D02*
X345334D01*
X334666D02*
Y278682D01*
X345334Y270808D02*
Y278682D01*
X389128Y240792D02*
Y251460D01*
X381254D02*
X389128D01*
X381254Y240792D02*
X389128D01*
X364236D02*
Y251460D01*
X372110D01*
X364236Y240792D02*
X372110D01*
X295148Y319786D02*
Y330454D01*
Y319786D02*
X303022D01*
X295148Y330454D02*
X303022D01*
X320040Y319786D02*
Y330454D01*
X312166Y319786D02*
X320040D01*
X312166Y330454D02*
X320040D01*
X545084Y257848D02*
X555244D01*
X545084Y275120D02*
X555244D01*
X545084Y257848D02*
Y275120D01*
X567436Y257848D02*
X577596D01*
X567436Y275120D02*
X577596D01*
Y257848D02*
Y275120D01*
X630633Y94742D02*
X640793D01*
X630633Y77470D02*
X640793D01*
Y94742D01*
X608281D02*
X618441D01*
X608281Y77470D02*
X618441D01*
X608281D02*
Y94742D01*
X555060Y108204D02*
X653060D01*
X555060D02*
Y209804D01*
X653060D01*
Y108204D02*
Y209804D01*
X545084Y224282D02*
X555244D01*
X545084Y241554D02*
X555244D01*
X545084Y224282D02*
Y241554D01*
X567436Y224282D02*
X577596D01*
X567436Y241554D02*
X577596D01*
Y224282D02*
Y241554D01*
X630428Y415798D02*
X640588D01*
X630428Y398526D02*
X640588D01*
Y415798D01*
X608076D02*
X618236D01*
X608076Y398526D02*
X618236D01*
X608076D02*
Y415798D01*
X555060Y292354D02*
X653060D01*
X555060D02*
Y393954D01*
X653060D01*
Y292354D02*
Y393954D01*
X39170Y185195D02*
Y178847D01*
X42344D01*
X43402Y179905D01*
Y184137D01*
X42344Y185195D01*
X39170D01*
X45518D02*
Y180963D01*
X47634Y178847D01*
X49750Y180963D01*
Y185195D01*
X51866D02*
Y178847D01*
X55040D01*
X56098Y179905D01*
Y184137D01*
X55040Y185195D01*
X51866D01*
X58214D02*
Y178847D01*
X61388D01*
X62446Y179905D01*
Y184137D01*
X61388Y185195D01*
X58214D01*
X39170Y210648D02*
Y204300D01*
X43402D01*
X45518D02*
Y210648D01*
X48692D01*
X49750Y209590D01*
Y207474D01*
X48692Y206416D01*
X45518D01*
X47634D02*
X49750Y204300D01*
X56098Y209590D02*
X55040Y210648D01*
X52924D01*
X51866Y209590D01*
Y205358D01*
X52924Y204300D01*
X55040D01*
X56098Y205358D01*
X58214Y210648D02*
Y204300D01*
X62446D01*
X64562Y210648D02*
Y204300D01*
Y206416D01*
X68794Y210648D01*
X65620Y207474D01*
X68794Y204300D01*
X39170Y236101D02*
Y229753D01*
X42344D01*
X43402Y230811D01*
Y231869D01*
X42344Y232927D01*
X39170D01*
X42344D01*
X43402Y233985D01*
Y235043D01*
X42344Y236101D01*
X39170D01*
X49750Y235043D02*
X48692Y236101D01*
X46576D01*
X45518Y235043D01*
Y230811D01*
X46576Y229753D01*
X48692D01*
X49750Y230811D01*
X51866Y236101D02*
Y229753D01*
X56098D01*
X58214Y236101D02*
Y229753D01*
Y231869D01*
X62446Y236101D01*
X59272Y232927D01*
X62446Y229753D01*
X43402Y260496D02*
X42344Y261554D01*
X40228D01*
X39170Y260496D01*
Y259438D01*
X40228Y258380D01*
X42344D01*
X43402Y257322D01*
Y256264D01*
X42344Y255206D01*
X40228D01*
X39170Y256264D01*
X45518Y261554D02*
Y255206D01*
X48692D01*
X49750Y256264D01*
Y260496D01*
X48692Y261554D01*
X45518D01*
X51866D02*
X53982D01*
X52924D01*
Y255206D01*
X51866D01*
X53982D01*
X57156D02*
Y261554D01*
X61388Y255206D01*
Y261554D01*
X43402Y285949D02*
X42344Y287007D01*
X40228D01*
X39170Y285949D01*
Y281717D01*
X40228Y280659D01*
X42344D01*
X43402Y281717D01*
Y283833D01*
X41286D01*
X45518Y280659D02*
Y287007D01*
X48692D01*
X49750Y285949D01*
Y283833D01*
X48692Y282775D01*
X45518D01*
X51866Y287007D02*
X53982D01*
X52924D01*
Y280659D01*
X51866D01*
X53982D01*
X60330Y287007D02*
X58214D01*
X57156Y285949D01*
Y281717D01*
X58214Y280659D01*
X60330D01*
X61388Y281717D01*
Y285949D01*
X60330Y287007D01*
X63504Y285949D02*
X64562Y287007D01*
X66678D01*
X67736Y285949D01*
Y281717D01*
X66678Y280659D01*
X64562D01*
X63504Y281717D01*
Y285949D01*
X43402Y311402D02*
X42344Y312460D01*
X40228D01*
X39170Y311402D01*
Y307170D01*
X40228Y306112D01*
X42344D01*
X43402Y307170D01*
Y309286D01*
X41286D01*
X45518Y306112D02*
Y312460D01*
X48692D01*
X49750Y311402D01*
Y309286D01*
X48692Y308228D01*
X45518D01*
X51866Y312460D02*
X53982D01*
X52924D01*
Y306112D01*
X51866D01*
X53982D01*
X60330Y312460D02*
X58214D01*
X57156Y311402D01*
Y307170D01*
X58214Y306112D01*
X60330D01*
X61388Y307170D01*
Y311402D01*
X60330Y312460D01*
X63504Y306112D02*
X65620D01*
X64562D01*
Y312460D01*
X63504Y311402D01*
X43402Y336855D02*
X42344Y337913D01*
X40228D01*
X39170Y336855D01*
Y332623D01*
X40228Y331565D01*
X42344D01*
X43402Y332623D01*
Y334739D01*
X41286D01*
X45518Y331565D02*
Y337913D01*
X48692D01*
X49750Y336855D01*
Y334739D01*
X48692Y333681D01*
X45518D01*
X51866Y337913D02*
X53982D01*
X52924D01*
Y331565D01*
X51866D01*
X53982D01*
X60330Y337913D02*
X58214D01*
X57156Y336855D01*
Y332623D01*
X58214Y331565D01*
X60330D01*
X61388Y332623D01*
Y336855D01*
X60330Y337913D01*
X67736Y331565D02*
X63504D01*
X67736Y335797D01*
Y336855D01*
X66678Y337913D01*
X64562D01*
X63504Y336855D01*
X39170Y357018D02*
Y363366D01*
X42344D01*
X43402Y362308D01*
Y360192D01*
X42344Y359134D01*
X39170D01*
X45518Y363366D02*
Y357018D01*
X48692D01*
X49750Y358076D01*
Y362308D01*
X48692Y363366D01*
X45518D01*
X51866Y357018D02*
Y363366D01*
X56098Y357018D01*
Y363366D01*
X43402Y387761D02*
X42344Y388819D01*
X40228D01*
X39170Y387761D01*
Y386703D01*
X40228Y385645D01*
X42344D01*
X43402Y384587D01*
Y383529D01*
X42344Y382471D01*
X40228D01*
X39170Y383529D01*
X49750Y387761D02*
X48692Y388819D01*
X46576D01*
X45518Y387761D01*
Y383529D01*
X46576Y382471D01*
X48692D01*
X49750Y383529D01*
X51866Y388819D02*
Y382471D01*
X56098D01*
X43402Y413214D02*
X42344Y414272D01*
X40228D01*
X39170Y413214D01*
Y412156D01*
X40228Y411098D01*
X42344D01*
X43402Y410040D01*
Y408982D01*
X42344Y407924D01*
X40228D01*
X39170Y408982D01*
X45518Y414272D02*
Y407924D01*
X48692D01*
X49750Y408982D01*
Y413214D01*
X48692Y414272D01*
X45518D01*
X51866Y407924D02*
Y412156D01*
X53982Y414272D01*
X56098Y412156D01*
Y407924D01*
Y411098D01*
X51866D01*
D11*
X408494Y390000D02*
Y490000D01*
X524494Y390000D02*
Y490000D01*
X408494D02*
X524494D01*
X408494Y390000D02*
X524494D01*
X409358Y134912D02*
Y234912D01*
X525358Y134912D02*
Y234912D01*
X409358D02*
X525358D01*
X409358Y134912D02*
X525358D01*
X407834Y266484D02*
Y366484D01*
X523834Y266484D02*
Y366484D01*
X407834D02*
X523834D01*
X407834Y266484D02*
X523834D01*
X408494Y10000D02*
Y110000D01*
X524494Y10000D02*
Y110000D01*
X408494D02*
X524494D01*
X408494Y10000D02*
X524494D01*
X287433Y20420D02*
X284894Y22959D01*
X279815D01*
X277276Y20420D01*
Y10264D01*
X279815Y7724D01*
X284894D01*
X287433Y10264D01*
X292511Y20420D02*
X295050Y22959D01*
X300129D01*
X302668Y20420D01*
Y17881D01*
X300129Y15342D01*
X297589D01*
X300129D01*
X302668Y12803D01*
Y10264D01*
X300129Y7724D01*
X295050D01*
X292511Y10264D01*
X63641Y438446D02*
X58562D01*
X61102D01*
Y425750D01*
X58562Y423210D01*
X56023D01*
X53484Y425750D01*
X68719Y435906D02*
X71258Y438446D01*
X76337D01*
X78876Y435906D01*
Y433367D01*
X76337Y430828D01*
X73797D01*
X76337D01*
X78876Y428289D01*
Y425750D01*
X76337Y423210D01*
X71258D01*
X68719Y425750D01*
X91283Y346859D02*
Y362094D01*
X98900D01*
X101440Y359555D01*
Y354476D01*
X98900Y351937D01*
X91283D01*
X96361D02*
X101440Y346859D01*
X116675Y362094D02*
X106518D01*
Y354476D01*
X111596Y357015D01*
X114136D01*
X116675Y354476D01*
Y349398D01*
X114136Y346859D01*
X109057D01*
X106518Y349398D01*
X91285Y321284D02*
Y336519D01*
X98902D01*
X101441Y333980D01*
Y328902D01*
X98902Y326362D01*
X91285D01*
X96363D02*
X101441Y321284D01*
X114137D02*
Y336519D01*
X106520Y328902D01*
X116676D01*
X91286Y296052D02*
Y311287D01*
X98904D01*
X101443Y308748D01*
Y303669D01*
X98904Y301130D01*
X91286D01*
X96364D02*
X101443Y296052D01*
X106521Y308748D02*
X109060Y311287D01*
X114139D01*
X116678Y308748D01*
Y306208D01*
X114139Y303669D01*
X111600D01*
X114139D01*
X116678Y301130D01*
Y298591D01*
X114139Y296052D01*
X109060D01*
X106521Y298591D01*
X91703Y270877D02*
Y286112D01*
X99320D01*
X101860Y283573D01*
Y278495D01*
X99320Y275956D01*
X91703D01*
X96781D02*
X101860Y270877D01*
X117095D02*
X106938D01*
X117095Y281034D01*
Y283573D01*
X114556Y286112D01*
X109477D01*
X106938Y283573D01*
X376686Y362455D02*
Y347220D01*
X386843D01*
X399539D02*
Y362455D01*
X391921Y354838D01*
X402078D01*
X533404Y487677D02*
Y472443D01*
X543561D01*
X548639Y485138D02*
X551178Y487677D01*
X556257D01*
X558796Y485138D01*
Y482599D01*
X556257Y480060D01*
X553717D01*
X556257D01*
X558796Y477521D01*
Y474982D01*
X556257Y472443D01*
X551178D01*
X548639Y474982D01*
X378210Y151382D02*
Y136146D01*
X388367D01*
X403602D02*
X393445D01*
X403602Y146303D01*
Y148842D01*
X401063Y151382D01*
X395984D01*
X393445Y148842D01*
X535943Y25398D02*
Y10163D01*
X546100D01*
X551178D02*
X556257D01*
X553718D01*
Y25398D01*
X551178Y22858D01*
X636017Y281430D02*
X630938D01*
X633478D01*
Y268734D01*
X630938Y266194D01*
X628399D01*
X625860Y268734D01*
X651252Y266194D02*
X641095D01*
X651252Y276351D01*
Y278890D01*
X648713Y281430D01*
X643634D01*
X641095Y278890D01*
X640080Y230121D02*
X635002D01*
X637541D01*
Y217426D01*
X635002Y214886D01*
X632463D01*
X629923Y217426D01*
X645158Y214886D02*
X650237D01*
X647698D01*
Y230121D01*
X645158Y227582D01*
X594362Y271273D02*
X591823Y273812D01*
X586745D01*
X584206Y271273D01*
Y261116D01*
X586745Y258577D01*
X591823D01*
X594362Y261116D01*
X609598Y258577D02*
X599441D01*
X609598Y268734D01*
Y271273D01*
X607058Y273812D01*
X601980D01*
X599441Y271273D01*
X614676Y258577D02*
X619754D01*
X617215D01*
Y273812D01*
X614676Y271273D01*
X163071Y328166D02*
X160532Y330705D01*
X155453D01*
X152914Y328166D01*
Y318010D01*
X155453Y315471D01*
X160532D01*
X163071Y318010D01*
X168149Y315471D02*
X173228D01*
X170688D01*
Y330705D01*
X168149Y328166D01*
X180845D02*
X183384Y330705D01*
X188463D01*
X191002Y328166D01*
Y325627D01*
X188463Y323088D01*
X191002Y320549D01*
Y318010D01*
X188463Y315471D01*
X183384D01*
X180845Y318010D01*
Y320549D01*
X183384Y323088D01*
X180845Y325627D01*
Y328166D01*
X183384Y323088D02*
X188463D01*
X163071Y351534D02*
X160532Y354073D01*
X155453D01*
X152914Y351534D01*
Y341378D01*
X155453Y338839D01*
X160532D01*
X163071Y341378D01*
X168149Y338839D02*
X173228D01*
X170688D01*
Y354073D01*
X168149Y351534D01*
X191002Y354073D02*
X185924Y351534D01*
X180845Y346456D01*
Y341378D01*
X183384Y338839D01*
X188463D01*
X191002Y341378D01*
Y343917D01*
X188463Y346456D01*
X180845D01*
X578106Y413002D02*
X575567Y415541D01*
X570489D01*
X567949Y413002D01*
Y402846D01*
X570489Y400307D01*
X575567D01*
X578106Y402846D01*
X583184Y400307D02*
X588263D01*
X585724D01*
Y415541D01*
X583184Y413002D01*
X595880Y400307D02*
X600959D01*
X598419D01*
Y415541D01*
X595880Y413002D01*
X593093Y237996D02*
X590554Y240536D01*
X585475D01*
X582936Y237996D01*
Y227840D01*
X585475Y225301D01*
X590554D01*
X593093Y227840D01*
X598171Y225301D02*
X603250D01*
X600710D01*
Y240536D01*
X598171Y237996D01*
X610867D02*
X613406Y240536D01*
X618485D01*
X621024Y237996D01*
Y227840D01*
X618485Y225301D01*
X613406D01*
X610867Y227840D01*
Y237996D01*
X340869Y330036D02*
X338330Y332575D01*
X333251D01*
X330712Y330036D01*
Y319879D01*
X333251Y317340D01*
X338330D01*
X340869Y319879D01*
X345947D02*
X348486Y317340D01*
X353565D01*
X356104Y319879D01*
Y330036D01*
X353565Y332575D01*
X348486D01*
X345947Y330036D01*
Y327497D01*
X348486Y324957D01*
X356104D01*
X340869Y351026D02*
X338330Y353565D01*
X333251D01*
X330712Y351026D01*
Y340870D01*
X333251Y338330D01*
X338330D01*
X340869Y340870D01*
X345947Y351026D02*
X348486Y353565D01*
X353565D01*
X356104Y351026D01*
Y348487D01*
X353565Y345948D01*
X356104Y343409D01*
Y340870D01*
X353565Y338330D01*
X348486D01*
X345947Y340870D01*
Y343409D01*
X348486Y345948D01*
X345947Y348487D01*
Y351026D01*
X348486Y345948D02*
X353565D01*
X340869Y371853D02*
X338330Y374392D01*
X333251D01*
X330712Y371853D01*
Y361696D01*
X333251Y359157D01*
X338330D01*
X340869Y361696D01*
X345947Y374392D02*
X356104D01*
Y371853D01*
X345947Y361696D01*
Y359157D01*
X339595Y186436D02*
X337056Y188975D01*
X331977D01*
X329438Y186436D01*
Y176279D01*
X331977Y173740D01*
X337056D01*
X339595Y176279D01*
X354830Y188975D02*
X349752Y186436D01*
X344673Y181358D01*
Y176279D01*
X347212Y173740D01*
X352291D01*
X354830Y176279D01*
Y178818D01*
X352291Y181358D01*
X344673D01*
X339595Y165859D02*
X337056Y168398D01*
X331977D01*
X329438Y165859D01*
Y155702D01*
X331977Y153163D01*
X337056D01*
X339595Y155702D01*
X354830Y168398D02*
X344673D01*
Y160780D01*
X349752Y163320D01*
X352291D01*
X354830Y160780D01*
Y155702D01*
X352291Y153163D01*
X347212D01*
X344673Y155702D01*
X339341Y144777D02*
X336802Y147316D01*
X331723D01*
X329184Y144777D01*
Y134620D01*
X331723Y132081D01*
X336802D01*
X339341Y134620D01*
X352037Y132081D02*
Y147316D01*
X344419Y139698D01*
X354576D01*
X289815Y489710D02*
X287276Y492249D01*
X282197D01*
X279658Y489710D01*
Y479554D01*
X282197Y477015D01*
X287276D01*
X289815Y479554D01*
X305050Y477015D02*
X294893D01*
X305050Y487171D01*
Y489710D01*
X302511Y492249D01*
X297432D01*
X294893Y489710D01*
X587710Y91184D02*
X585171Y93723D01*
X580093D01*
X577553Y91184D01*
Y81028D01*
X580093Y78488D01*
X585171D01*
X587710Y81028D01*
X592789Y78488D02*
X597867D01*
X595328D01*
Y93723D01*
X592789Y91184D01*
X206759Y346454D02*
Y331218D01*
X214377D01*
X216916Y333758D01*
Y336297D01*
X214377Y338836D01*
X206759D01*
X214377D01*
X216916Y341375D01*
Y343914D01*
X214377Y346454D01*
X206759D01*
X221994Y331218D02*
X227073D01*
X224534D01*
Y346454D01*
X221994Y343914D01*
D12*
X78582Y346350D02*
Y362606D01*
Y320775D02*
Y337031D01*
Y295826D02*
Y312082D01*
Y270368D02*
Y286624D01*
X120142Y207772D02*
Y224028D01*
X118618Y207772D02*
Y224028D01*
D13*
X209480Y308010D02*
X226230D01*
M02*
