G04*
G04 #@! TF.GenerationSoftware,Altium Limited,Altium Designer,23.1.1 (15)*
G04*
G04 Layer_Color=8421504*
%FSLAX44Y44*%
%MOMM*%
G71*
G04*
G04 #@! TF.SameCoordinates,268351B6-6D58-47A7-88F6-7EDC03A6DC4B*
G04*
G04*
G04 #@! TF.FilePolarity,Positive*
G04*
G01*
G75*
%ADD14R,0.6350X0.4572*%
%ADD15R,6.5000X2.3000*%
%ADD16R,3.5000X4.0000*%
%ADD17R,0.8890X0.7620*%
%ADD18R,0.7620X0.8890*%
%ADD19R,4.1100X4.3600*%
%ADD20R,1.6750X0.4500*%
%ADD21R,1.0160X1.5240*%
D14*
X82900Y359177D02*
D03*
Y349779D02*
D03*
Y333602D02*
D03*
Y324204D02*
D03*
Y308653D02*
D03*
Y299255D02*
D03*
Y283195D02*
D03*
Y273797D02*
D03*
X124460Y220599D02*
D03*
Y211201D02*
D03*
X114300D02*
D03*
Y220599D02*
D03*
X179620Y185926D02*
D03*
Y195324D02*
D03*
X190541Y185799D02*
D03*
Y195197D02*
D03*
D15*
X252578Y430000D02*
D03*
X150582D02*
D03*
Y70206D02*
D03*
X252578D02*
D03*
D16*
X418994Y440000D02*
D03*
X513994D02*
D03*
X419858Y184912D02*
D03*
X514858D02*
D03*
X418334Y316484D02*
D03*
X513334D02*
D03*
X418994Y60000D02*
D03*
X513994D02*
D03*
D17*
X340000Y215380D02*
D03*
Y230620D02*
D03*
X340000Y290874D02*
D03*
Y275634D02*
D03*
D18*
X177545Y215510D02*
D03*
X162305D02*
D03*
X183388Y291510D02*
D03*
X168148D02*
D03*
X183386Y304510D02*
D03*
X168146D02*
D03*
X300228Y181356D02*
D03*
X315468D02*
D03*
X384302Y260788D02*
D03*
X369062D02*
D03*
X384302Y246126D02*
D03*
X369062D02*
D03*
X299974Y325120D02*
D03*
X315214D02*
D03*
D19*
X256730Y253510D02*
D03*
D20*
X295610Y302260D02*
D03*
Y295760D02*
D03*
Y289260D02*
D03*
Y282760D02*
D03*
Y276260D02*
D03*
Y269760D02*
D03*
Y263260D02*
D03*
Y256760D02*
D03*
Y250260D02*
D03*
Y243760D02*
D03*
Y237260D02*
D03*
Y230760D02*
D03*
Y224260D02*
D03*
Y217760D02*
D03*
Y211260D02*
D03*
Y204760D02*
D03*
X217850D02*
D03*
Y211260D02*
D03*
Y217760D02*
D03*
Y224260D02*
D03*
Y230760D02*
D03*
Y237260D02*
D03*
Y243760D02*
D03*
Y250260D02*
D03*
Y256760D02*
D03*
Y263260D02*
D03*
Y269760D02*
D03*
Y276260D02*
D03*
Y282760D02*
D03*
Y289260D02*
D03*
Y295760D02*
D03*
Y302260D02*
D03*
D21*
X319278Y160782D02*
D03*
X298958D02*
D03*
X319182Y139700D02*
D03*
X298862D02*
D03*
X319230Y366776D02*
D03*
X298910D02*
D03*
X319232Y345694D02*
D03*
X298912D02*
D03*
X551180Y266484D02*
D03*
X571500D02*
D03*
X634697Y86106D02*
D03*
X614377D02*
D03*
X551180Y232918D02*
D03*
X571500D02*
D03*
X634492Y407162D02*
D03*
X614172D02*
D03*
M02*
