G04*
G04 #@! TF.GenerationSoftware,Altium Limited,Altium Designer,24.10.1 (45)*
G04*
G04 Layer_Color=8388736*
%FSLAX44Y44*%
%MOMM*%
G71*
G04*
G04 #@! TF.SameCoordinates,D9CC4E6A-2C68-4F5F-81DB-F534FF38BD19*
G04*
G04*
G04 #@! TF.FilePolarity,Negative*
G04*
G01*
G75*
%ADD24R,6.6016X2.4016*%
%ADD25R,0.8820X1.0090*%
%ADD26R,1.1560X1.6640*%
%ADD27R,3.7032X4.2032*%
%ADD28R,0.7450X0.5672*%
%ADD29R,1.0090X0.8820*%
%ADD30R,0.7550X0.5772*%
%ADD31R,4.3132X4.5632*%
%ADD32R,1.8782X0.6532*%
%ADD33R,1.6640X1.1560*%
%ADD34C,1.7032*%
%ADD35R,1.7032X1.7032*%
%ADD36R,2.7032X2.7032*%
%ADD37C,2.7032*%
%ADD38C,0.6000*%
D24*
X108260Y427990D02*
D03*
X210256D02*
D03*
X254706Y81534D02*
D03*
X152710D02*
D03*
D25*
X314257Y161652D02*
D03*
X299017D02*
D03*
X189611Y215510D02*
D03*
X174371D02*
D03*
X299017Y345338D02*
D03*
X314257D02*
D03*
D26*
X293880Y362259D02*
D03*
X314200D02*
D03*
X293878Y125222D02*
D03*
X314198D02*
D03*
Y144526D02*
D03*
X293878D02*
D03*
X293880Y382325D02*
D03*
X314200D02*
D03*
D27*
X515872Y320802D02*
D03*
X420872D02*
D03*
X515872Y438222D02*
D03*
X420872D02*
D03*
X515872Y185674D02*
D03*
X420872D02*
D03*
X515872Y68382D02*
D03*
X420872D02*
D03*
D28*
X76806Y369353D02*
D03*
Y359955D02*
D03*
X95250Y343789D02*
D03*
Y334391D02*
D03*
Y318389D02*
D03*
Y308991D02*
D03*
X95758Y292989D02*
D03*
Y283591D02*
D03*
X140462Y221361D02*
D03*
Y211963D02*
D03*
X130302D02*
D03*
Y221361D02*
D03*
D29*
X339598Y192488D02*
D03*
Y207728D02*
D03*
X182140Y304038D02*
D03*
Y319278D02*
D03*
X195348Y304034D02*
D03*
Y319274D02*
D03*
X358394Y275745D02*
D03*
Y260505D02*
D03*
X339598Y314556D02*
D03*
Y299316D02*
D03*
X358394Y231195D02*
D03*
Y246435D02*
D03*
D30*
X185166Y188976D02*
D03*
Y198374D02*
D03*
X196088Y188849D02*
D03*
Y198247D02*
D03*
D31*
X256730Y253510D02*
D03*
D32*
X295610Y302260D02*
D03*
Y295760D02*
D03*
Y289260D02*
D03*
Y282760D02*
D03*
Y276260D02*
D03*
Y269760D02*
D03*
Y263260D02*
D03*
Y256760D02*
D03*
Y250260D02*
D03*
Y243760D02*
D03*
Y237260D02*
D03*
Y230760D02*
D03*
Y224260D02*
D03*
Y217760D02*
D03*
Y211260D02*
D03*
Y204760D02*
D03*
X217850D02*
D03*
Y211260D02*
D03*
Y217760D02*
D03*
Y224260D02*
D03*
Y230760D02*
D03*
Y237260D02*
D03*
Y243760D02*
D03*
Y250260D02*
D03*
Y256760D02*
D03*
Y263260D02*
D03*
Y269760D02*
D03*
Y276260D02*
D03*
Y282760D02*
D03*
Y289260D02*
D03*
Y295760D02*
D03*
Y302260D02*
D03*
D33*
X551688Y356108D02*
D03*
Y335788D02*
D03*
Y103632D02*
D03*
Y83312D02*
D03*
Y150368D02*
D03*
Y170688D02*
D03*
Y403352D02*
D03*
Y423672D02*
D03*
D34*
X48514Y242316D02*
D03*
Y267716D02*
D03*
Y394716D02*
D03*
Y369316D02*
D03*
Y343916D02*
D03*
Y318516D02*
D03*
Y293116D02*
D03*
Y191516D02*
D03*
Y216916D02*
D03*
D35*
Y420116D02*
D03*
D36*
X51308Y133350D02*
D03*
X623062Y101600D02*
D03*
Y353822D02*
D03*
D37*
X51308Y82550D02*
D03*
X623062Y152400D02*
D03*
Y404622D02*
D03*
D38*
X235936Y70034D02*
D03*
X255357D02*
D03*
X275268D02*
D03*
X274617Y93034D02*
D03*
X254706D02*
D03*
X235285D02*
D03*
X229657Y135382D02*
D03*
X207411D02*
D03*
X244799Y125222D02*
D03*
X185166Y135128D02*
D03*
X140675D02*
D03*
X162921D02*
D03*
X118430Y134874D02*
D03*
X73939D02*
D03*
X96184D02*
D03*
X195348Y328847D02*
D03*
X182140D02*
D03*
X185166Y180466D02*
D03*
X196168D02*
D03*
X234879Y328847D02*
D03*
X217080D02*
D03*
X251262Y184087D02*
D03*
X234233D02*
D03*
X234879Y344864D02*
D03*
X217080D02*
D03*
X181483D02*
D03*
X199282D02*
D03*
X250616Y169418D02*
D03*
X217850Y184087D02*
D03*
X217204Y169418D02*
D03*
X234233D02*
D03*
X611483Y10922D02*
D03*
X591257D02*
D03*
X571031D02*
D03*
X550805Y10922D02*
D03*
X530578D02*
D03*
X510352D02*
D03*
X490126D02*
D03*
X469900D02*
D03*
X450596D02*
D03*
X430370D02*
D03*
X410144D02*
D03*
X389917D02*
D03*
X369691D02*
D03*
X349465Y10922D02*
D03*
X329239D02*
D03*
X309013D02*
D03*
Y27940D02*
D03*
Y44450D02*
D03*
Y64676D02*
D03*
Y84902D02*
D03*
X288787Y10922D02*
D03*
X269483D02*
D03*
X249256D02*
D03*
X229030D02*
D03*
X208804D02*
D03*
X188578D02*
D03*
X168352Y10922D02*
D03*
X148126D02*
D03*
X127899D02*
D03*
X107673D02*
D03*
X87447Y10922D02*
D03*
X67221D02*
D03*
X692658Y71964D02*
D03*
Y92191D02*
D03*
Y112417D02*
D03*
Y132643D02*
D03*
Y152869D02*
D03*
Y173095D02*
D03*
Y193321D02*
D03*
Y213548D02*
D03*
Y233774D02*
D03*
Y254000D02*
D03*
Y274226D02*
D03*
X692658Y294452D02*
D03*
Y314678D02*
D03*
Y334905D02*
D03*
Y355131D02*
D03*
Y375357D02*
D03*
Y395583D02*
D03*
Y415809D02*
D03*
X610590Y490982D02*
D03*
X590364D02*
D03*
X570138D02*
D03*
X549912Y490982D02*
D03*
X529686D02*
D03*
X509459D02*
D03*
X489233D02*
D03*
X469007D02*
D03*
X449703D02*
D03*
X429477D02*
D03*
X409251D02*
D03*
X389025D02*
D03*
X368798D02*
D03*
X348572Y490982D02*
D03*
X328346D02*
D03*
X308120D02*
D03*
Y473456D02*
D03*
Y454754D02*
D03*
Y435798D02*
D03*
Y418111D02*
D03*
X225044Y443738D02*
D03*
X206756D02*
D03*
X188976D02*
D03*
X198882Y460756D02*
D03*
X136454Y443992D02*
D03*
X115570D02*
D03*
X94686D02*
D03*
X94559Y408432D02*
D03*
X115443D02*
D03*
X136327D02*
D03*
X536194Y148336D02*
D03*
Y104394D02*
D03*
X535432Y357632D02*
D03*
Y401574D02*
D03*
X314454Y406201D02*
D03*
Y395660D02*
D03*
X314315Y335649D02*
D03*
X173594Y70034D02*
D03*
Y93034D02*
D03*
X152710D02*
D03*
Y70034D02*
D03*
X131826D02*
D03*
Y93034D02*
D03*
X314198Y171341D02*
D03*
X314452Y111125D02*
D03*
Y100584D02*
D03*
X17454Y380492D02*
D03*
Y404876D02*
D03*
X184735Y478028D02*
D03*
X162814D02*
D03*
X140208D02*
D03*
X117348Y477419D02*
D03*
X94742D02*
D03*
X69088Y477019D02*
D03*
X17855Y433971D02*
D03*
X16002Y355346D02*
D03*
Y330454D02*
D03*
Y304844D02*
D03*
Y278892D02*
D03*
Y254508D02*
D03*
Y229108D02*
D03*
X16256Y201930D02*
D03*
X16764Y149872D02*
D03*
X27178Y166370D02*
D03*
Y149872D02*
D03*
Y133375D02*
D03*
X16764Y166370D02*
D03*
Y133375D02*
D03*
X76788Y351416D02*
D03*
X87219Y283609D02*
D03*
X86711Y309009D02*
D03*
Y334409D02*
D03*
X111760Y292862D02*
D03*
X120650Y318516D02*
D03*
X128270Y343762D02*
D03*
X116840Y227330D02*
D03*
X130302Y236363D02*
D03*
X139700Y243840D02*
D03*
Y279400D02*
D03*
X158750Y269308D02*
D03*
X241300Y297180D02*
D03*
X256730D02*
D03*
X241300Y209550D02*
D03*
X256730D02*
D03*
X241300Y222250D02*
D03*
X271780D02*
D03*
X256730D02*
D03*
X241300Y284480D02*
D03*
X271780D02*
D03*
X256730D02*
D03*
Y270564D02*
D03*
Y236812D02*
D03*
X271780Y254510D02*
D03*
X241300D02*
D03*
X414020Y254000D02*
D03*
X434246D02*
D03*
X454472D02*
D03*
X474698D02*
D03*
X494925D02*
D03*
X515151D02*
D03*
X535377D02*
D03*
X555603D02*
D03*
X575829D02*
D03*
X596056Y254000D02*
D03*
X616282D02*
D03*
X636508D02*
D03*
X656734D02*
D03*
X676960D02*
D03*
X651578Y127000D02*
D03*
X631352D02*
D03*
X611126D02*
D03*
X590900D02*
D03*
X570674D02*
D03*
X650308Y379222D02*
D03*
X630082D02*
D03*
X609856D02*
D03*
X589630D02*
D03*
X569404D02*
D03*
X470277Y101600D02*
D03*
Y83185D02*
D03*
X470277Y64770D02*
D03*
Y46355D02*
D03*
X469900Y27940D02*
D03*
X470277Y222250D02*
D03*
Y203835D02*
D03*
X470277Y185420D02*
D03*
Y167005D02*
D03*
X469900Y148590D02*
D03*
X469384Y355042D02*
D03*
Y336627D02*
D03*
X469384Y318212D02*
D03*
Y299797D02*
D03*
X469007Y281382D02*
D03*
X468630Y401320D02*
D03*
X469007Y419735D02*
D03*
Y438150D02*
D03*
X469007Y456565D02*
D03*
Y474980D02*
D03*
X174580Y206618D02*
D03*
X121111Y211756D02*
D03*
X363728Y195512D02*
D03*
Y180162D02*
D03*
Y165626D02*
D03*
Y151420D02*
D03*
Y136218D02*
D03*
X550447Y127000D02*
D03*
X530221D02*
D03*
X509995D02*
D03*
X489769D02*
D03*
X469543D02*
D03*
X449316D02*
D03*
X429090D02*
D03*
X408864D02*
D03*
X388638D02*
D03*
X387368Y380020D02*
D03*
X407594D02*
D03*
X427820D02*
D03*
X448046D02*
D03*
X468273D02*
D03*
X488499D02*
D03*
X508725D02*
D03*
X528951D02*
D03*
X549177D02*
D03*
X363728Y370802D02*
D03*
Y355600D02*
D03*
Y341394D02*
D03*
Y326858D02*
D03*
Y311508D02*
D03*
X358394Y209296D02*
D03*
X312674Y234010D02*
D03*
Y273010D02*
D03*
X358394Y297724D02*
D03*
X271780Y270564D02*
D03*
X256730Y254510D02*
D03*
X241300Y270564D02*
D03*
X271780Y236812D02*
D03*
X241300D02*
D03*
M02*
