G04*
G04 #@! TF.GenerationSoftware,Altium Limited,Altium Designer,24.10.1 (45)*
G04*
G04 Layer_Color=128*
%FSLAX44Y44*%
%MOMM*%
G71*
G04*
G04 #@! TF.SameCoordinates,D9CC4E6A-2C68-4F5F-81DB-F534FF38BD19*
G04*
G04*
G04 #@! TF.FilePolarity,Positive*
G04*
G01*
G75*
%ADD10C,0.1270*%
D10*
X44014Y242316D02*
X53014D01*
X48514Y237816D02*
Y246816D01*
X44014Y267716D02*
X53014D01*
X48514Y263216D02*
Y272216D01*
X44014Y420116D02*
X53014D01*
X48514Y415616D02*
Y424616D01*
X44014Y394716D02*
X53014D01*
X48514Y390216D02*
Y399216D01*
X44014Y369316D02*
X53014D01*
X48514Y364816D02*
Y373816D01*
X44014Y343916D02*
X53014D01*
X48514Y339416D02*
Y348416D01*
X44014Y318516D02*
X53014D01*
X48514Y314016D02*
Y323016D01*
X44014Y293116D02*
X53014D01*
X48514Y288616D02*
Y297616D01*
X44014Y191516D02*
X53014D01*
X48514Y187016D02*
Y196016D01*
X44014Y216916D02*
X53014D01*
X48514Y212416D02*
Y221416D01*
X44808Y133350D02*
X57808D01*
X51308Y126850D02*
Y139850D01*
X44808Y82550D02*
X57808D01*
X51308Y76050D02*
Y89050D01*
X616562Y152400D02*
X629562D01*
X623062Y145900D02*
Y158900D01*
X616562Y101600D02*
X629562D01*
X623062Y95100D02*
Y108100D01*
X616562Y404622D02*
X629562D01*
X623062Y398122D02*
Y411122D01*
X616562Y353822D02*
X629562D01*
X623062Y347322D02*
Y360322D01*
X234436Y70034D02*
X237436D01*
X235936Y68534D02*
Y71534D01*
X253857Y70034D02*
X256857D01*
X255357Y68534D02*
Y71534D01*
X273768Y70034D02*
X276768D01*
X275268Y68534D02*
Y71534D01*
X273117Y93034D02*
X276117D01*
X274617Y91534D02*
Y94534D01*
X253206Y93034D02*
X256206D01*
X254706Y91534D02*
Y94534D01*
X233785Y93034D02*
X236785D01*
X235285Y91534D02*
Y94534D01*
X228157Y135382D02*
X231157D01*
X229657Y133882D02*
Y136882D01*
X205911Y135382D02*
X208911D01*
X207411Y133882D02*
Y136882D01*
X243299Y125222D02*
X246299D01*
X244799Y123722D02*
Y126722D01*
X183666Y135128D02*
X186666D01*
X185166Y133628D02*
Y136628D01*
X139175Y135128D02*
X142175D01*
X140675Y133628D02*
Y136628D01*
X161421Y135128D02*
X164421D01*
X162921Y133628D02*
Y136628D01*
X116930Y134874D02*
X119930D01*
X118430Y133374D02*
Y136374D01*
X72439Y134874D02*
X75439D01*
X73939Y133374D02*
Y136374D01*
X94684Y134874D02*
X97684D01*
X96184Y133374D02*
Y136374D01*
X193848Y328847D02*
X196848D01*
X195348Y327347D02*
Y330347D01*
X180640Y328847D02*
X183640D01*
X182140Y327347D02*
Y330347D01*
X183666Y180466D02*
X186666D01*
X185166Y178965D02*
Y181966D01*
X194668Y180466D02*
X197668D01*
X196168Y178965D02*
Y181966D01*
X233379Y328847D02*
X236379D01*
X234879Y327347D02*
Y330347D01*
X215580Y328847D02*
X218580D01*
X217080Y327347D02*
Y330347D01*
X249762Y184087D02*
X252762D01*
X251262Y182587D02*
Y185587D01*
X232733Y184087D02*
X235733D01*
X234233Y182587D02*
Y185587D01*
X233379Y344864D02*
X236379D01*
X234879Y343364D02*
Y346364D01*
X215580Y344864D02*
X218580D01*
X217080Y343364D02*
Y346364D01*
X179983Y344864D02*
X182983D01*
X181483Y343364D02*
Y346364D01*
X197782Y344864D02*
X200782D01*
X199282Y343364D02*
Y346364D01*
X249116Y169418D02*
X252116D01*
X250616Y167918D02*
Y170918D01*
X216350Y184087D02*
X219350D01*
X217850Y182587D02*
Y185587D01*
X215704Y169418D02*
X218704D01*
X217204Y167918D02*
Y170918D01*
X232733Y169418D02*
X235733D01*
X234233Y167918D02*
Y170918D01*
X609983Y10922D02*
X612983D01*
X611483Y9422D02*
Y12422D01*
X589757Y10922D02*
X592757D01*
X591257Y9422D02*
Y12422D01*
X569531Y10922D02*
X572531D01*
X571031Y9422D02*
Y12422D01*
X549305Y10922D02*
X552305D01*
X550805Y9422D02*
Y12422D01*
X529078Y10922D02*
X532079D01*
X530578Y9422D02*
Y12422D01*
X508852Y10922D02*
X511852D01*
X510352Y9422D02*
Y12422D01*
X488626Y10922D02*
X491626D01*
X490126Y9422D02*
Y12422D01*
X468400Y10922D02*
X471400D01*
X469900Y9422D02*
Y12422D01*
X449096Y10922D02*
X452096D01*
X450596Y9422D02*
Y12422D01*
X428870Y10922D02*
X431870D01*
X430370Y9422D02*
Y12422D01*
X408644Y10922D02*
X411644D01*
X410144Y9422D02*
Y12422D01*
X388418Y10922D02*
X391418D01*
X389917Y9422D02*
Y12422D01*
X368191Y10922D02*
X371191D01*
X369691Y9422D02*
Y12422D01*
X347965Y10922D02*
X350965D01*
X349465Y9422D02*
Y12422D01*
X327739Y10922D02*
X330739D01*
X329239Y9422D02*
Y12422D01*
X307513Y10922D02*
X310513D01*
X309013Y9422D02*
Y12422D01*
X307513Y27940D02*
X310513D01*
X309013Y26440D02*
Y29440D01*
X307513Y44450D02*
X310513D01*
X309013Y42950D02*
Y45950D01*
X307513Y64676D02*
X310513D01*
X309013Y63176D02*
Y66176D01*
X307513Y84902D02*
X310513D01*
X309013Y83402D02*
Y86402D01*
X287287Y10922D02*
X290287D01*
X288787Y9422D02*
Y12422D01*
X267983Y10922D02*
X270983D01*
X269483Y9422D02*
Y12422D01*
X247757Y10922D02*
X250756D01*
X249256Y9422D02*
Y12422D01*
X227530Y10922D02*
X230530D01*
X229030Y9422D02*
Y12422D01*
X207304Y10922D02*
X210304D01*
X208804Y9422D02*
Y12422D01*
X187078Y10922D02*
X190078D01*
X188578Y9422D02*
Y12422D01*
X166852Y10922D02*
X169852D01*
X168352Y9422D02*
Y12422D01*
X146626Y10922D02*
X149626D01*
X148126Y9422D02*
Y12422D01*
X126399Y10922D02*
X129399D01*
X127899Y9422D02*
Y12422D01*
X106173Y10922D02*
X109173D01*
X107673Y9422D02*
Y12422D01*
X85947Y10922D02*
X88947D01*
X87447Y9422D02*
Y12422D01*
X65721Y10922D02*
X68721D01*
X67221Y9422D02*
Y12422D01*
X691158Y71964D02*
X694158D01*
X692658Y70465D02*
Y73464D01*
X691158Y92191D02*
X694158D01*
X692658Y90691D02*
Y93691D01*
X691158Y112417D02*
X694158D01*
X692658Y110917D02*
Y113917D01*
X691158Y132643D02*
X694158D01*
X692658Y131143D02*
Y134143D01*
X691158Y152869D02*
X694158D01*
X692658Y151369D02*
Y154369D01*
X691158Y173095D02*
X694158D01*
X692658Y171595D02*
Y174595D01*
X691158Y193321D02*
X694158D01*
X692658Y191821D02*
Y194821D01*
X691158Y213548D02*
X694158D01*
X692658Y212048D02*
Y215048D01*
X691158Y233774D02*
X694158D01*
X692658Y232274D02*
Y235274D01*
X691158Y254000D02*
X694158D01*
X692658Y252500D02*
Y255500D01*
X691158Y274226D02*
X694158D01*
X692658Y272726D02*
Y275726D01*
X691158Y294452D02*
X694158D01*
X692658Y292952D02*
Y295952D01*
X691158Y314678D02*
X694158D01*
X692658Y313179D02*
Y316178D01*
X691158Y334905D02*
X694158D01*
X692658Y333405D02*
Y336405D01*
X691158Y355131D02*
X694158D01*
X692658Y353631D02*
Y356631D01*
X691158Y375357D02*
X694158D01*
X692658Y373857D02*
Y376857D01*
X691158Y395583D02*
X694158D01*
X692658Y394083D02*
Y397083D01*
X691158Y415809D02*
X694158D01*
X692658Y414309D02*
Y417309D01*
X609090Y490982D02*
X612090D01*
X610590Y489482D02*
Y492482D01*
X588864Y490982D02*
X591864D01*
X590364Y489482D02*
Y492482D01*
X568638Y490982D02*
X571638D01*
X570138Y489482D02*
Y492482D01*
X548412Y490982D02*
X551412D01*
X549912Y489482D02*
Y492482D01*
X528186Y490982D02*
X531185D01*
X529686Y489482D02*
Y492482D01*
X507959Y490982D02*
X510959D01*
X509459Y489482D02*
Y492482D01*
X487733Y490982D02*
X490733D01*
X489233Y489482D02*
Y492482D01*
X467507Y490982D02*
X470507D01*
X469007Y489482D02*
Y492482D01*
X448203Y490982D02*
X451203D01*
X449703Y489482D02*
Y492482D01*
X427977Y490982D02*
X430977D01*
X429477Y489482D02*
Y492482D01*
X407751Y490982D02*
X410751D01*
X409251Y489482D02*
Y492482D01*
X387524Y490982D02*
X390524D01*
X389025Y489482D02*
Y492482D01*
X367298Y490982D02*
X370298D01*
X368798Y489482D02*
Y492482D01*
X347072Y490982D02*
X350072D01*
X348572Y489482D02*
Y492482D01*
X326846Y490982D02*
X329846D01*
X328346Y489482D02*
Y492482D01*
X306620Y490982D02*
X309620D01*
X308120Y489482D02*
Y492482D01*
X306620Y473456D02*
X309620D01*
X308120Y471956D02*
Y474956D01*
X306620Y454754D02*
X309620D01*
X308120Y453254D02*
Y456254D01*
X306620Y435798D02*
X309620D01*
X308120Y434298D02*
Y437298D01*
X306620Y418111D02*
X309620D01*
X308120Y416612D02*
Y419612D01*
X223544Y443738D02*
X226544D01*
X225044Y442238D02*
Y445238D01*
X205256Y443738D02*
X208256D01*
X206756Y442238D02*
Y445238D01*
X187476Y443738D02*
X190476D01*
X188976Y442238D02*
Y445238D01*
X197382Y460756D02*
X200382D01*
X198882Y459256D02*
Y462256D01*
X134954Y443992D02*
X137954D01*
X136454Y442492D02*
Y445492D01*
X114070Y443992D02*
X117070D01*
X115570Y442492D02*
Y445492D01*
X93186Y443992D02*
X96186D01*
X94686Y442492D02*
Y445492D01*
X93059Y408432D02*
X96059D01*
X94559Y406932D02*
Y409932D01*
X113943Y408432D02*
X116943D01*
X115443Y406932D02*
Y409932D01*
X134827Y408432D02*
X137827D01*
X136327Y406932D02*
Y409932D01*
X534694Y148336D02*
X537694D01*
X536194Y146836D02*
Y149836D01*
X534694Y104394D02*
X537694D01*
X536194Y102894D02*
Y105894D01*
X533932Y357632D02*
X536932D01*
X535432Y356132D02*
Y359132D01*
X533932Y401574D02*
X536932D01*
X535432Y400074D02*
Y403074D01*
X312954Y406201D02*
X315954D01*
X314454Y404701D02*
Y407701D01*
X312954Y395660D02*
X315954D01*
X314454Y394160D02*
Y397160D01*
X312815Y335649D02*
X315815D01*
X314315Y334149D02*
Y337149D01*
X172094Y70034D02*
X175094D01*
X173594Y68534D02*
Y71534D01*
X172094Y93034D02*
X175094D01*
X173594Y91534D02*
Y94534D01*
X151210Y93034D02*
X154210D01*
X152710Y91534D02*
Y94534D01*
X151210Y70034D02*
X154210D01*
X152710Y68534D02*
Y71534D01*
X130326Y70034D02*
X133326D01*
X131826Y68534D02*
Y71534D01*
X130326Y93034D02*
X133326D01*
X131826Y91534D02*
Y94534D01*
X312698Y171341D02*
X315698D01*
X314198Y169841D02*
Y172841D01*
X312952Y111125D02*
X315952D01*
X314452Y109625D02*
Y112625D01*
X312952Y100584D02*
X315952D01*
X314452Y99084D02*
Y102084D01*
X15954Y380492D02*
X18954D01*
X17454Y378992D02*
Y381992D01*
X15954Y404876D02*
X18954D01*
X17454Y403376D02*
Y406376D01*
X183235Y478028D02*
X186235D01*
X184735Y476528D02*
Y479528D01*
X161314Y478028D02*
X164314D01*
X162814Y476528D02*
Y479528D01*
X138708Y478028D02*
X141708D01*
X140208Y476528D02*
Y479528D01*
X115848Y477419D02*
X118848D01*
X117348Y475919D02*
Y478919D01*
X93242Y477419D02*
X96242D01*
X94742Y475919D02*
Y478919D01*
X67588Y477019D02*
X70588D01*
X69088Y475519D02*
Y478519D01*
X16355Y433971D02*
X19355D01*
X17855Y432471D02*
Y435471D01*
X14502Y355346D02*
X17502D01*
X16002Y353846D02*
Y356846D01*
X14502Y330454D02*
X17502D01*
X16002Y328954D02*
Y331954D01*
X14502Y304844D02*
X17502D01*
X16002Y303344D02*
Y306343D01*
X14502Y278892D02*
X17502D01*
X16002Y277392D02*
Y280392D01*
X14502Y254508D02*
X17502D01*
X16002Y253008D02*
Y256008D01*
X14502Y229108D02*
X17502D01*
X16002Y227608D02*
Y230608D01*
X14756Y201930D02*
X17756D01*
X16256Y200430D02*
Y203430D01*
X15264Y149872D02*
X18264D01*
X16764Y148372D02*
Y151372D01*
X25678Y166370D02*
X28678D01*
X27178Y164870D02*
Y167870D01*
X25678Y149872D02*
X28678D01*
X27178Y148372D02*
Y151372D01*
X25678Y133375D02*
X28678D01*
X27178Y131875D02*
Y134875D01*
X15264Y166370D02*
X18264D01*
X16764Y164870D02*
Y167870D01*
X15264Y133375D02*
X18264D01*
X16764Y131875D02*
Y134875D01*
X75288Y351416D02*
X78288D01*
X76788Y349916D02*
Y352916D01*
X85719Y283609D02*
X88719D01*
X87219Y282109D02*
Y285109D01*
X85211Y309009D02*
X88211D01*
X86711Y307509D02*
Y310509D01*
X85211Y334409D02*
X88211D01*
X86711Y332909D02*
Y335909D01*
X110260Y292862D02*
X113260D01*
X111760Y291362D02*
Y294362D01*
X119150Y318516D02*
X122150D01*
X120650Y317016D02*
Y320016D01*
X126770Y343762D02*
X129770D01*
X128270Y342262D02*
Y345262D01*
X115340Y227330D02*
X118340D01*
X116840Y225830D02*
Y228830D01*
X128802Y236363D02*
X131802D01*
X130302Y234863D02*
Y237863D01*
X138200Y243840D02*
X141200D01*
X139700Y242340D02*
Y245340D01*
X138200Y279400D02*
X141200D01*
X139700Y277900D02*
Y280900D01*
X157250Y269308D02*
X160250D01*
X158750Y267808D02*
Y270808D01*
X239800Y297180D02*
X242800D01*
X241300Y295680D02*
Y298680D01*
X255230Y297180D02*
X258230D01*
X256730Y295680D02*
Y298680D01*
X239800Y209550D02*
X242800D01*
X241300Y208050D02*
Y211050D01*
X255230Y209550D02*
X258230D01*
X256730Y208050D02*
Y211050D01*
X239800Y222250D02*
X242800D01*
X241300Y220750D02*
Y223750D01*
X270280Y222250D02*
X273280D01*
X271780Y220750D02*
Y223750D01*
X255230Y222250D02*
X258230D01*
X256730Y220750D02*
Y223750D01*
X239800Y284480D02*
X242800D01*
X241300Y282980D02*
Y285980D01*
X270280Y284480D02*
X273280D01*
X271780Y282980D02*
Y285980D01*
X255230Y284480D02*
X258230D01*
X256730Y282980D02*
Y285980D01*
X255230Y270564D02*
X258230D01*
X256730Y269064D02*
Y272064D01*
X255230Y236812D02*
X258230D01*
X256730Y235312D02*
Y238312D01*
X270280Y254510D02*
X273280D01*
X271780Y253010D02*
Y256010D01*
X239800Y254510D02*
X242800D01*
X241300Y253010D02*
Y256010D01*
X412520Y254000D02*
X415520D01*
X414020Y252500D02*
Y255500D01*
X432746Y254000D02*
X435746D01*
X434246Y252500D02*
Y255500D01*
X452972Y254000D02*
X455972D01*
X454472Y252500D02*
Y255500D01*
X473199Y254000D02*
X476199D01*
X474698Y252500D02*
Y255500D01*
X493425Y254000D02*
X496425D01*
X494925Y252500D02*
Y255500D01*
X513651Y254000D02*
X516651D01*
X515151Y252500D02*
Y255500D01*
X533877Y254000D02*
X536877D01*
X535377Y252500D02*
Y255500D01*
X554103Y254000D02*
X557103D01*
X555603Y252500D02*
Y255500D01*
X574329Y254000D02*
X577329D01*
X575829Y252500D02*
Y255500D01*
X594556Y254000D02*
X597556D01*
X596056Y252500D02*
Y255500D01*
X614782Y254000D02*
X617782D01*
X616282Y252500D02*
Y255500D01*
X635008Y254000D02*
X638008D01*
X636508Y252500D02*
Y255500D01*
X655234Y254000D02*
X658234D01*
X656734Y252500D02*
Y255500D01*
X675460Y254000D02*
X678460D01*
X676960Y252500D02*
Y255500D01*
X650078Y127000D02*
X653078D01*
X651578Y125500D02*
Y128500D01*
X629852Y127000D02*
X632852D01*
X631352Y125500D02*
Y128500D01*
X609626Y127000D02*
X612626D01*
X611126Y125500D02*
Y128500D01*
X589400Y127000D02*
X592400D01*
X590900Y125500D02*
Y128500D01*
X569174Y127000D02*
X572174D01*
X570674Y125500D02*
Y128500D01*
X648808Y379222D02*
X651808D01*
X650308Y377722D02*
Y380722D01*
X628582Y379222D02*
X631582D01*
X630082Y377722D02*
Y380722D01*
X608356Y379222D02*
X611356D01*
X609856Y377722D02*
Y380722D01*
X588130Y379222D02*
X591130D01*
X589630Y377722D02*
Y380722D01*
X567904Y379222D02*
X570904D01*
X569404Y377722D02*
Y380722D01*
X468777Y101600D02*
X471777D01*
X470277Y100100D02*
Y103100D01*
X468777Y83185D02*
X471777D01*
X470277Y81685D02*
Y84685D01*
X468777Y64770D02*
X471777D01*
X470277Y63270D02*
Y66270D01*
X468777Y46355D02*
X471777D01*
X470277Y44855D02*
Y47855D01*
X468400Y27940D02*
X471400D01*
X469900Y26440D02*
Y29440D01*
X468777Y222250D02*
X471777D01*
X470277Y220750D02*
Y223750D01*
X468777Y203835D02*
X471777D01*
X470277Y202335D02*
Y205335D01*
X468777Y185420D02*
X471777D01*
X470277Y183920D02*
Y186920D01*
X468777Y167005D02*
X471777D01*
X470277Y165505D02*
Y168505D01*
X468400Y148590D02*
X471400D01*
X469900Y147090D02*
Y150090D01*
X467884Y355042D02*
X470884D01*
X469384Y353542D02*
Y356542D01*
X467884Y336627D02*
X470884D01*
X469384Y335127D02*
Y338127D01*
X467884Y318212D02*
X470884D01*
X469384Y316712D02*
Y319712D01*
X467884Y299797D02*
X470884D01*
X469384Y298297D02*
Y301297D01*
X467507Y281382D02*
X470507D01*
X469007Y279882D02*
Y282882D01*
X467130Y401320D02*
X470130D01*
X468630Y399820D02*
Y402820D01*
X467507Y419735D02*
X470507D01*
X469007Y418235D02*
Y421235D01*
X467507Y438150D02*
X470507D01*
X469007Y436650D02*
Y439650D01*
X467507Y456565D02*
X470507D01*
X469007Y455065D02*
Y458065D01*
X467507Y474980D02*
X470507D01*
X469007Y473480D02*
Y476480D01*
X173080Y206618D02*
X176080D01*
X174580Y205118D02*
Y208118D01*
X119611Y211756D02*
X122611D01*
X121111Y210256D02*
Y213256D01*
X362228Y195512D02*
X365228D01*
X363728Y194012D02*
Y197012D01*
X362228Y180162D02*
X365228D01*
X363728Y178662D02*
Y181662D01*
X362228Y165626D02*
X365228D01*
X363728Y164126D02*
Y167126D01*
X362228Y151420D02*
X365228D01*
X363728Y149920D02*
Y152920D01*
X362228Y136218D02*
X365228D01*
X363728Y134718D02*
Y137718D01*
X548947Y127000D02*
X551947D01*
X550447Y125500D02*
Y128500D01*
X528721Y127000D02*
X531721D01*
X530221Y125500D02*
Y128500D01*
X508495Y127000D02*
X511495D01*
X509995Y125500D02*
Y128500D01*
X488269Y127000D02*
X491269D01*
X489769Y125500D02*
Y128500D01*
X468043Y127000D02*
X471043D01*
X469543Y125500D02*
Y128500D01*
X447817Y127000D02*
X450816D01*
X449316Y125500D02*
Y128500D01*
X427590Y127000D02*
X430590D01*
X429090Y125500D02*
Y128500D01*
X407364Y127000D02*
X410364D01*
X408864Y125500D02*
Y128500D01*
X387138Y127000D02*
X390138D01*
X388638Y125500D02*
Y128500D01*
X385868Y380020D02*
X388868D01*
X387368Y378520D02*
Y381520D01*
X406094Y380020D02*
X409094D01*
X407594Y378520D02*
Y381520D01*
X426320Y380020D02*
X429320D01*
X427820Y378520D02*
Y381520D01*
X446547Y380020D02*
X449547D01*
X448046Y378520D02*
Y381520D01*
X466773Y380020D02*
X469773D01*
X468273Y378520D02*
Y381520D01*
X486999Y380020D02*
X489999D01*
X488499Y378520D02*
Y381520D01*
X507225Y380020D02*
X510225D01*
X508725Y378520D02*
Y381520D01*
X527451Y380020D02*
X530451D01*
X528951Y378520D02*
Y381520D01*
X547677Y380020D02*
X550677D01*
X549177Y378520D02*
Y381520D01*
X362228Y370802D02*
X365228D01*
X363728Y369302D02*
Y372302D01*
X362228Y355600D02*
X365228D01*
X363728Y354100D02*
Y357100D01*
X362228Y341394D02*
X365228D01*
X363728Y339894D02*
Y342894D01*
X362228Y326858D02*
X365228D01*
X363728Y325358D02*
Y328358D01*
X362228Y311508D02*
X365228D01*
X363728Y310008D02*
Y313008D01*
X356894Y209296D02*
X359894D01*
X358394Y207796D02*
Y210796D01*
X311174Y234010D02*
X314174D01*
X312674Y232510D02*
Y235510D01*
X311174Y273010D02*
X314174D01*
X312674Y271510D02*
Y274510D01*
X356894Y297724D02*
X359894D01*
X358394Y296224D02*
Y299224D01*
X270280Y270564D02*
X273280D01*
X271780Y269064D02*
Y272064D01*
X255230Y254510D02*
X258230D01*
X256730Y253010D02*
Y256010D01*
X239800Y270564D02*
X242800D01*
X241300Y269064D02*
Y272064D01*
X270280Y236812D02*
X273280D01*
X271780Y235312D02*
Y238312D01*
X239800Y236812D02*
X242800D01*
X241300Y235312D02*
Y238312D01*
M02*
