G04*
G04 #@! TF.GenerationSoftware,Altium Limited,Altium Designer,24.10.1 (45)*
G04*
G04 Layer_Physical_Order=1*
G04 Layer_Color=255*
%FSLAX44Y44*%
%MOMM*%
G71*
G04*
G04 #@! TF.SameCoordinates,D9CC4E6A-2C68-4F5F-81DB-F534FF38BD19*
G04*
G04*
G04 #@! TF.FilePolarity,Positive*
G04*
G01*
G75*
%ADD14C,0.2540*%
%ADD15R,6.5000X2.3000*%
%ADD16R,0.7620X0.8890*%
%ADD17R,1.0160X1.5240*%
%ADD18R,3.5000X4.0000*%
%ADD19R,0.6350X0.4572*%
%ADD20R,0.8890X0.7620*%
%ADD21R,4.1100X4.3600*%
%ADD22R,1.6750X0.4500*%
%ADD23R,1.5240X1.0160*%
%ADD38C,0.6000*%
%ADD39C,0.3810*%
%ADD40C,0.4318*%
%ADD41R,1.7272X0.4445*%
%ADD42R,1.6510X0.4572*%
%ADD43R,1.6750X0.4500*%
%ADD44C,1.5000*%
%ADD45R,1.5000X1.5000*%
%ADD46R,2.5000X2.5000*%
%ADD47C,2.5000*%
G36*
X188161Y494085D02*
X226822Y455424D01*
X227581Y454666D01*
X277876D01*
X287206Y445335D01*
Y401139D01*
X298958Y389388D01*
Y353652D01*
X302827Y349783D01*
Y333726D01*
X302804D01*
X308980Y327550D01*
Y298574D01*
X304505Y294100D01*
X287490D01*
X287240Y294050D01*
X286985Y294050D01*
X286792Y294012D01*
X266446Y314358D01*
Y333726D01*
Y337572D01*
X222206Y381811D01*
X177756D01*
Y447592D01*
X168993Y456355D01*
X61893D01*
X33632Y428094D01*
Y175718D01*
X60735Y148844D01*
X245872D01*
X266446Y169418D01*
Y173264D01*
Y194910D01*
X285046Y213510D01*
X303885D01*
X308980Y208415D01*
Y179440D01*
X302804Y173264D01*
X302827D01*
Y157207D01*
X298958Y153338D01*
Y117602D01*
X287206Y105850D01*
Y61654D01*
X277876Y52324D01*
X232410D01*
X222206Y62528D01*
Y120850D01*
X38808D01*
Y120904D01*
X2286D01*
Y486918D01*
Y487969D01*
X2696Y490030D01*
X3500Y491971D01*
X4668Y493718D01*
X6154Y495204D01*
X7901Y496372D01*
X9842Y497176D01*
X11903Y497586D01*
X184660D01*
X188161Y494085D01*
D02*
G37*
G36*
X438882Y458638D02*
Y418344D01*
X435102Y414564D01*
X381000D01*
X351282Y384846D01*
Y308395D01*
X349823Y306936D01*
X332927Y306936D01*
X320040Y294049D01*
X313001Y287010D01*
X287235Y287010D01*
Y291450D01*
X287254Y291463D01*
X287490Y291510D01*
X306242D01*
X312674Y297942D01*
Y319568D01*
X328720Y335614D01*
Y441532D01*
X354330Y467142D01*
X430378D01*
X438882Y458638D01*
D02*
G37*
G36*
Y341152D02*
Y300802D01*
X428910Y290830D01*
X406205Y268125D01*
X332101D01*
X324986Y261010D01*
X287235D01*
Y264920D01*
X316174D01*
X317166Y265117D01*
X318006Y265679D01*
X334323Y281996D01*
X352484D01*
X353475Y282193D01*
X354315Y282754D01*
X354321Y282760D01*
X355391D01*
X382778Y310147D01*
Y336804D01*
X391958Y345984D01*
X434050D01*
X438882Y341152D01*
D02*
G37*
G36*
X173990Y445516D02*
Y378968D01*
X220472D01*
X263856Y335584D01*
Y333726D01*
Y314358D01*
Y313366D01*
X264452Y312770D01*
X264615Y312526D01*
X280162Y296979D01*
Y212288D01*
X264615Y196741D01*
X263856Y195983D01*
Y194910D01*
Y173264D01*
Y170491D01*
X244799Y151434D01*
X167765D01*
X167765Y180466D01*
X178562Y191262D01*
X202692Y191262D01*
X207697Y196267D01*
Y207232D01*
X209253D01*
X209475Y207010D01*
X227781D01*
X230124Y209353D01*
Y299788D01*
X207697D01*
Y311654D01*
X203887Y315464D01*
X169350Y315464D01*
X168208Y316606D01*
Y320548D01*
X167971Y321737D01*
X167971Y321737D01*
Y324479D01*
X115634Y376816D01*
X63500D01*
Y446682D01*
X70208Y453390D01*
X166116D01*
X173990Y445516D01*
D02*
G37*
G36*
X332181Y238815D02*
X406285D01*
X428910Y216190D01*
X438882Y206218D01*
Y165868D01*
X434050Y161036D01*
X391958D01*
X382778Y170216D01*
Y196873D01*
X355391Y224260D01*
X334698D01*
X334463Y224307D01*
X334263Y224440D01*
X317952Y240751D01*
X317193Y241510D01*
X287235D01*
Y245420D01*
X303985D01*
X304976Y245617D01*
X305564Y246010D01*
X324986D01*
X332181Y238815D01*
D02*
G37*
G36*
X689202Y497179D02*
X691407Y496265D01*
X693391Y494939D01*
X695079Y493252D01*
X696405Y491268D01*
X697318Y489063D01*
X697784Y486722D01*
Y485529D01*
Y11627D01*
X697783Y11626D01*
X697783Y10706D01*
X697424Y8902D01*
X696720Y7202D01*
X695698Y5672D01*
X694397Y4371D01*
X692867Y3349D01*
X691167Y2645D01*
X689363Y2286D01*
X12132D01*
X10022Y2706D01*
X8034Y3529D01*
X6246Y4724D01*
X4724Y6246D01*
X3529Y8034D01*
X2706Y10022D01*
X2286Y12132D01*
Y13208D01*
Y116332D01*
X218694D01*
Y60960D01*
X230378Y49276D01*
X279146Y49276D01*
X291592Y61722D01*
Y105850D01*
X309118D01*
Y152146D01*
X319278D01*
Y117602D01*
Y105850D01*
X325120D01*
Y65742D01*
X324866Y65488D01*
X353822Y36532D01*
Y36322D01*
X430530D01*
X441706Y47498D01*
Y98552D01*
X390688D01*
X354732Y134508D01*
Y205899D01*
X346352Y214279D01*
X330334D01*
X316103Y228510D01*
X287235D01*
Y238920D01*
X316121D01*
X332612Y222429D01*
X333452Y221867D01*
X334443Y221670D01*
X353249D01*
X372364Y202555D01*
Y157770D01*
X374686Y155448D01*
X440944D01*
Y164382D01*
X441275Y164877D01*
X441472Y165868D01*
Y206218D01*
X441275Y207209D01*
X440944Y207704D01*
Y208280D01*
X407780Y241444D01*
X365760D01*
Y264414D01*
X407670D01*
X442468Y299212D01*
Y351572D01*
X374686D01*
X372364Y349250D01*
Y304465D01*
X352484Y284585D01*
X333250D01*
X316174Y267510D01*
X287235D01*
Y278510D01*
X316103D01*
X330334Y292741D01*
X346352D01*
X354732Y301121D01*
Y372512D01*
X390688Y408468D01*
X442468D01*
Y459232D01*
X432562Y469138D01*
X431963D01*
X431369Y469535D01*
X430378Y469732D01*
X354330D01*
X353339Y469535D01*
X352499Y468973D01*
X326889Y443363D01*
X326327Y442523D01*
X326130Y441532D01*
Y396742D01*
X321564Y392176D01*
X319280D01*
Y389183D01*
Y354639D01*
X309120D01*
Y392176D01*
X300783D01*
X290595Y402364D01*
Y446512D01*
X280162Y456946D01*
X279035D01*
X278867Y457058D01*
X277876Y457255D01*
X228653D01*
X189992Y495917D01*
Y497644D01*
X686861D01*
X689202Y497179D01*
D02*
G37*
G36*
X332713Y200108D02*
X349294D01*
X351282Y198120D01*
Y122174D01*
X381000Y92456D01*
X435102D01*
X438882Y88676D01*
Y48382D01*
X430378Y39878D01*
X354330D01*
X328720Y65488D01*
Y171406D01*
X312674Y187452D01*
Y208355D01*
X310868Y210161D01*
X310811Y210246D01*
X305716Y215341D01*
X305631Y215398D01*
X305519Y215510D01*
X305464D01*
X304876Y215903D01*
X303885Y216100D01*
X287235D01*
Y220010D01*
X312811D01*
X332713Y200108D01*
D02*
G37*
%LPC*%
G36*
X37079Y484734D02*
X33632D01*
X33382Y484685D01*
X33126D01*
X29746Y484012D01*
X29510Y483914D01*
X29260Y483865D01*
X26075Y482546D01*
X25863Y482404D01*
X25627Y482306D01*
X22761Y480391D01*
X22581Y480211D01*
X22369Y480069D01*
X19931Y477631D01*
X19789Y477419D01*
X19609Y477239D01*
X17694Y474373D01*
X17596Y474137D01*
X17454Y473925D01*
X16135Y470740D01*
X16085Y470490D01*
X15988Y470254D01*
X15315Y466874D01*
Y466618D01*
X15266Y466368D01*
Y464645D01*
Y462921D01*
X15315Y462671D01*
Y462416D01*
X15988Y459035D01*
X16085Y458799D01*
X16135Y458549D01*
X17454Y455364D01*
X17596Y455152D01*
X17694Y454916D01*
X19609Y452050D01*
X19789Y451870D01*
X19931Y451658D01*
X22369Y449220D01*
X22581Y449079D01*
X22761Y448898D01*
X25627Y446983D01*
X25863Y446885D01*
X26075Y446744D01*
X29260Y445424D01*
X29510Y445375D01*
X29746Y445277D01*
X33126Y444605D01*
X33382D01*
X33632Y444555D01*
X37079D01*
X37329Y444605D01*
X37584D01*
X40965Y445277D01*
X41201Y445375D01*
X41451Y445424D01*
X44636Y446744D01*
X44848Y446885D01*
X45083Y446983D01*
X47950Y448898D01*
X48130Y449079D01*
X48342Y449220D01*
X50780Y451658D01*
X50921Y451870D01*
X51102Y452050D01*
X53017Y454916D01*
X53115Y455152D01*
X53256Y455364D01*
X54576Y458549D01*
X54625Y458799D01*
X54723Y459035D01*
X55395Y462416D01*
Y462671D01*
X55445Y462921D01*
Y464645D01*
Y466368D01*
X55395Y466618D01*
Y466874D01*
X54723Y470254D01*
X54625Y470490D01*
X54576Y470740D01*
X53256Y473925D01*
X53115Y474137D01*
X53017Y474373D01*
X51102Y477239D01*
X50921Y477419D01*
X50780Y477631D01*
X48342Y480069D01*
X48130Y480211D01*
X47950Y480391D01*
X45083Y482306D01*
X44848Y482404D01*
X44636Y482546D01*
X41451Y483865D01*
X41201Y483914D01*
X40965Y484012D01*
X37584Y484685D01*
X37329D01*
X37079Y484734D01*
D02*
G37*
G36*
X666094Y484436D02*
X662647D01*
X662397Y484387D01*
X662142D01*
X658761Y483714D01*
X658525Y483617D01*
X658275Y483567D01*
X655090Y482248D01*
X654878Y482106D01*
X654642Y482008D01*
X651776Y480093D01*
X651596Y479913D01*
X651384Y479771D01*
X648946Y477334D01*
X648804Y477122D01*
X648624Y476941D01*
X646709Y474075D01*
X646611Y473839D01*
X646469Y473627D01*
X645150Y470442D01*
X645101Y470192D01*
X645003Y469957D01*
X644331Y466576D01*
Y466320D01*
X644281Y466070D01*
Y464347D01*
Y462623D01*
X644331Y462373D01*
Y462118D01*
X645003Y458737D01*
X645101Y458501D01*
X645150Y458251D01*
X646469Y455066D01*
X646611Y454854D01*
X646709Y454619D01*
X648624Y451752D01*
X648804Y451572D01*
X648946Y451360D01*
X651384Y448922D01*
X651596Y448781D01*
X651776Y448600D01*
X654642Y446685D01*
X654878Y446587D01*
X655090Y446446D01*
X658275Y445127D01*
X658525Y445077D01*
X658761Y444979D01*
X662142Y444307D01*
X662397D01*
X662647Y444257D01*
X666094D01*
X666344Y444307D01*
X666599D01*
X669980Y444979D01*
X670216Y445077D01*
X670466Y445127D01*
X673651Y446446D01*
X673863Y446587D01*
X674099Y446685D01*
X676965Y448600D01*
X677145Y448781D01*
X677357Y448922D01*
X679795Y451360D01*
X679937Y451572D01*
X680117Y451752D01*
X682032Y454619D01*
X682130Y454854D01*
X682271Y455066D01*
X683591Y458251D01*
X683640Y458501D01*
X683738Y458737D01*
X684410Y462118D01*
Y462373D01*
X684460Y462623D01*
Y464347D01*
Y466070D01*
X684410Y466320D01*
Y466576D01*
X683738Y469957D01*
X683640Y470192D01*
X683591Y470442D01*
X682271Y473627D01*
X682130Y473839D01*
X682032Y474075D01*
X680117Y476941D01*
X679937Y477122D01*
X679795Y477334D01*
X677357Y479771D01*
X677145Y479913D01*
X676965Y480093D01*
X674099Y482008D01*
X673863Y482106D01*
X673651Y482248D01*
X670466Y483567D01*
X670216Y483617D01*
X669980Y483714D01*
X666599Y484387D01*
X666344D01*
X666094Y484436D01*
D02*
G37*
G36*
X612444Y460812D02*
X499136D01*
X498145Y460615D01*
X497305Y460053D01*
X497269Y460000D01*
X496594D01*
Y458462D01*
X496546Y458222D01*
Y417896D01*
X496594Y417655D01*
Y416444D01*
X497051D01*
X497305Y416065D01*
X498145Y415503D01*
X499136Y415306D01*
X548054D01*
X548386Y415240D01*
X579063D01*
X604721Y389583D01*
X605561Y389021D01*
X606552Y388824D01*
X637540D01*
X638531Y389021D01*
X639371Y389583D01*
X639933Y390423D01*
X640130Y391414D01*
Y433126D01*
X639933Y434118D01*
X639371Y434958D01*
X614276Y460053D01*
X613436Y460615D01*
X612444Y460812D01*
D02*
G37*
G36*
X637540Y369620D02*
X606552D01*
X605561Y369423D01*
X604721Y368861D01*
X579063Y343204D01*
X548386D01*
X548054Y343138D01*
X498372D01*
X497381Y342941D01*
X496841Y342580D01*
X496594D01*
Y342415D01*
X496541Y342379D01*
X495979Y341539D01*
X495782Y340548D01*
Y300548D01*
X495979Y299557D01*
X496541Y298717D01*
X497381Y298155D01*
X498372Y297958D01*
X612771D01*
X613761Y298155D01*
X614602Y298717D01*
X639371Y323486D01*
X639933Y324327D01*
X640130Y325317D01*
Y367030D01*
X639933Y368021D01*
X639371Y368861D01*
X638531Y369423D01*
X637540Y369620D01*
D02*
G37*
G36*
X613664Y209042D02*
X495554D01*
X495554Y155448D01*
X582676D01*
X583438Y156210D01*
X602996Y136652D01*
X606302D01*
X606552Y136602D01*
X637540D01*
X637790Y136652D01*
X640080D01*
Y138942D01*
X640130Y139192D01*
Y180905D01*
X640080Y181155D01*
Y182626D01*
X613664Y209042D01*
D02*
G37*
G36*
X640080Y117602D02*
X605790D01*
X605042Y116854D01*
X604721Y116639D01*
X586633Y98552D01*
X495554D01*
X495554Y44704D01*
X612862D01*
X640080Y71922D01*
Y72845D01*
X640130Y73095D01*
Y114808D01*
X640080Y115058D01*
Y117602D01*
D02*
G37*
G36*
X37080Y55446D02*
X33632D01*
X33382Y55396D01*
X33127D01*
X29746Y54723D01*
X29510Y54626D01*
X29260Y54576D01*
X26075Y53257D01*
X25863Y53115D01*
X25628Y53017D01*
X22761Y51102D01*
X22581Y50922D01*
X22369Y50780D01*
X19931Y48343D01*
X19790Y48131D01*
X19609Y47950D01*
X17694Y45084D01*
X17597Y44848D01*
X17455Y44636D01*
X16136Y41452D01*
X16086Y41201D01*
X15988Y40966D01*
X15316Y37585D01*
Y37330D01*
X15266Y37080D01*
Y35356D01*
Y33632D01*
X15316Y33382D01*
Y33127D01*
X15988Y29746D01*
X16086Y29510D01*
X16136Y29260D01*
X17455Y26075D01*
X17597Y25863D01*
X17694Y25628D01*
X19609Y22761D01*
X19790Y22581D01*
X19931Y22369D01*
X22369Y19931D01*
X22581Y19790D01*
X22761Y19609D01*
X25628Y17694D01*
X25863Y17597D01*
X26075Y17455D01*
X29260Y16136D01*
X29510Y16086D01*
X29746Y15988D01*
X33127Y15316D01*
X33382D01*
X33632Y15266D01*
X37080D01*
X37330Y15316D01*
X37585D01*
X40966Y15988D01*
X41201Y16086D01*
X41452Y16136D01*
X44636Y17455D01*
X44848Y17597D01*
X45084Y17694D01*
X47950Y19609D01*
X48131Y19790D01*
X48343Y19931D01*
X50780Y22369D01*
X50922Y22581D01*
X51102Y22761D01*
X53017Y25628D01*
X53115Y25863D01*
X53257Y26075D01*
X54576Y29260D01*
X54626Y29510D01*
X54723Y29746D01*
X55396Y33127D01*
Y33382D01*
X55446Y33632D01*
Y35356D01*
Y37080D01*
X55396Y37330D01*
Y37585D01*
X54723Y40966D01*
X54626Y41201D01*
X54576Y41452D01*
X53257Y44636D01*
X53115Y44848D01*
X53017Y45084D01*
X51102Y47950D01*
X50922Y48131D01*
X50780Y48343D01*
X48343Y50780D01*
X48131Y50922D01*
X47950Y51102D01*
X45084Y53017D01*
X44848Y53115D01*
X44636Y53257D01*
X41452Y54576D01*
X41201Y54626D01*
X40966Y54723D01*
X37585Y55396D01*
X37330D01*
X37080Y55446D01*
D02*
G37*
G36*
X666838Y54999D02*
X663391D01*
X663141Y54949D01*
X662886D01*
X659505Y54277D01*
X659269Y54179D01*
X659019Y54130D01*
X655834Y52810D01*
X655622Y52669D01*
X655386Y52571D01*
X652520Y50656D01*
X652340Y50476D01*
X652128Y50334D01*
X649690Y47896D01*
X649548Y47684D01*
X649368Y47504D01*
X647453Y44638D01*
X647355Y44402D01*
X647214Y44190D01*
X645894Y41005D01*
X645845Y40755D01*
X645747Y40519D01*
X645075Y37138D01*
Y36883D01*
X645025Y36633D01*
Y34910D01*
Y33186D01*
X645075Y32936D01*
Y32681D01*
X645747Y29300D01*
X645845Y29064D01*
X645894Y28814D01*
X647214Y25629D01*
X647355Y25417D01*
X647453Y25181D01*
X649368Y22315D01*
X649548Y22135D01*
X649690Y21923D01*
X652128Y19485D01*
X652340Y19343D01*
X652520Y19163D01*
X655386Y17248D01*
X655622Y17150D01*
X655834Y17009D01*
X659019Y15689D01*
X659269Y15640D01*
X659505Y15542D01*
X662886Y14870D01*
X663141D01*
X663391Y14820D01*
X666838D01*
X667088Y14870D01*
X667343D01*
X670724Y15542D01*
X670960Y15640D01*
X671210Y15689D01*
X674395Y17009D01*
X674607Y17150D01*
X674843Y17248D01*
X677709Y19163D01*
X677889Y19343D01*
X678101Y19485D01*
X680539Y21923D01*
X680681Y22135D01*
X680861Y22315D01*
X682776Y25181D01*
X682874Y25417D01*
X683015Y25629D01*
X684335Y28814D01*
X684384Y29064D01*
X684482Y29300D01*
X685154Y32681D01*
Y32936D01*
X685204Y33186D01*
Y34910D01*
Y36633D01*
X685154Y36883D01*
Y37138D01*
X684482Y40519D01*
X684384Y40755D01*
X684335Y41005D01*
X683015Y44190D01*
X682874Y44402D01*
X682776Y44638D01*
X680861Y47504D01*
X680681Y47684D01*
X680539Y47896D01*
X678101Y50334D01*
X677889Y50476D01*
X677709Y50656D01*
X674843Y52571D01*
X674607Y52669D01*
X674395Y52810D01*
X671210Y54130D01*
X670960Y54179D01*
X670724Y54277D01*
X667343Y54949D01*
X667088D01*
X666838Y54999D01*
D02*
G37*
%LPD*%
G36*
X637540Y433126D02*
Y391414D01*
X606552D01*
X580136Y417830D01*
X548386D01*
X548320Y417896D01*
X499136D01*
Y458222D01*
X612444D01*
X637540Y433126D01*
D02*
G37*
G36*
Y325317D02*
X612771Y300548D01*
X498372D01*
Y340548D01*
X548320D01*
X548386Y340614D01*
X580136D01*
X606552Y367030D01*
X637540D01*
Y325317D01*
D02*
G37*
G36*
Y180905D02*
Y139192D01*
X606552D01*
X580136Y165608D01*
X548386D01*
X548320Y165674D01*
X499136D01*
Y205674D01*
X612771D01*
X637540Y180905D01*
D02*
G37*
G36*
Y73095D02*
X612771Y48326D01*
X499136D01*
Y88326D01*
X548320D01*
X548386Y88392D01*
X580136D01*
X606552Y114808D01*
X637540D01*
Y73095D01*
D02*
G37*
D14*
X76970Y369189D02*
X116459D01*
X165100Y287010D02*
Y320548D01*
X116459Y369189D02*
X165100Y320548D01*
X48514Y242316D02*
X64770D01*
X79214Y256760D02*
X217850D01*
X64770Y242316D02*
X79214Y256760D01*
X83958Y263260D02*
X217850D01*
X48514Y267716D02*
X79502D01*
X83958Y263260D01*
X76806Y369353D02*
X76970Y369189D01*
X48532Y369334D02*
X76788D01*
X76806Y369353D01*
X48514Y369316D02*
X48532Y369334D01*
X48577Y343853D02*
X95187D01*
X95250Y343789D01*
X48514Y343916D02*
X48577Y343853D01*
X95263Y343776D02*
X128257D01*
X95250Y343789D02*
X95263Y343776D01*
X128257D02*
X128270Y343762D01*
X48577Y318452D02*
X95187D01*
X95250Y318389D01*
X48514Y318516D02*
X48577Y318452D01*
X95314D02*
X120587D01*
X95250Y318389D02*
X95314Y318452D01*
X120587D02*
X120650Y318516D01*
X48577Y293053D02*
X95695D01*
X95758Y292989D01*
X48514Y293116D02*
X48577Y293053D01*
X95822Y292925D02*
X111697D01*
X95758Y292989D02*
X95822Y292925D01*
X111697D02*
X111760Y292862D01*
X60467Y216916D02*
X93811Y250260D01*
X48514Y216916D02*
X60467D01*
X93811Y250260D02*
X217850D01*
X117776Y227330D02*
X120761Y230315D01*
X217405D01*
X116840Y227330D02*
X117776D01*
X130302Y236363D02*
X130751Y236812D01*
X217402D01*
X217850Y237260D01*
X139740Y243800D02*
X217810D01*
X139700Y243840D02*
X139740Y243800D01*
X217810D02*
X217850Y243760D01*
X143776Y276260D02*
X217850D01*
X139700Y279400D02*
X140636D01*
X143776Y276260D01*
X158750Y269308D02*
X158976Y269534D01*
X217624D02*
X217850Y269760D01*
X158976Y269534D02*
X217624D01*
X165100Y287010D02*
X169350Y282760D01*
X217850D01*
X141351Y221361D02*
X144250Y224260D01*
X217850D01*
X140462Y221361D02*
X141351D01*
X217405Y230315D02*
X217850Y230760D01*
D15*
X108260Y427990D02*
D03*
X210256D02*
D03*
X254706Y81534D02*
D03*
X152710D02*
D03*
D16*
X314257Y161652D02*
D03*
X299017D02*
D03*
X189611Y215510D02*
D03*
X174371D02*
D03*
X299017Y345338D02*
D03*
X314257D02*
D03*
D17*
X293880Y362259D02*
D03*
X314200D02*
D03*
X293878Y125222D02*
D03*
X314198D02*
D03*
Y144526D02*
D03*
X293878D02*
D03*
X293880Y382325D02*
D03*
X314200D02*
D03*
D18*
X515872Y320802D02*
D03*
X420872D02*
D03*
X515872Y438222D02*
D03*
X420872D02*
D03*
X515872Y185674D02*
D03*
X420872D02*
D03*
X515872Y68382D02*
D03*
X420872D02*
D03*
D19*
X76806Y369353D02*
D03*
Y359955D02*
D03*
X95250Y343789D02*
D03*
Y334391D02*
D03*
Y318389D02*
D03*
Y308991D02*
D03*
X95758Y292989D02*
D03*
Y283591D02*
D03*
X140462Y221361D02*
D03*
Y211963D02*
D03*
X130302D02*
D03*
Y221361D02*
D03*
X185166Y188976D02*
D03*
Y198374D02*
D03*
X196088Y188849D02*
D03*
Y198247D02*
D03*
D20*
X339598Y192488D02*
D03*
Y207728D02*
D03*
X182140Y304038D02*
D03*
Y319278D02*
D03*
X195348Y304034D02*
D03*
Y319274D02*
D03*
X358394Y275745D02*
D03*
Y260505D02*
D03*
X339598Y314556D02*
D03*
Y299316D02*
D03*
X358394Y231195D02*
D03*
Y246435D02*
D03*
D21*
X256730Y253510D02*
D03*
D22*
X295610Y302260D02*
D03*
Y295760D02*
D03*
Y289260D02*
D03*
Y282760D02*
D03*
Y276260D02*
D03*
Y269760D02*
D03*
Y263260D02*
D03*
Y256760D02*
D03*
Y250260D02*
D03*
Y243760D02*
D03*
Y237260D02*
D03*
Y230760D02*
D03*
Y224260D02*
D03*
Y217760D02*
D03*
Y211260D02*
D03*
Y204760D02*
D03*
X217850D02*
D03*
Y211260D02*
D03*
Y217760D02*
D03*
Y224260D02*
D03*
Y230760D02*
D03*
Y237260D02*
D03*
Y243760D02*
D03*
Y250260D02*
D03*
Y256760D02*
D03*
Y263260D02*
D03*
Y269760D02*
D03*
Y276260D02*
D03*
Y282760D02*
D03*
Y289260D02*
D03*
Y295760D02*
D03*
Y302260D02*
D03*
D23*
X551688Y356108D02*
D03*
Y335788D02*
D03*
Y103632D02*
D03*
Y83312D02*
D03*
Y150368D02*
D03*
Y170688D02*
D03*
Y403352D02*
D03*
Y423672D02*
D03*
D38*
X235936Y70034D02*
D03*
X255357D02*
D03*
X275268D02*
D03*
X274617Y93034D02*
D03*
X254706D02*
D03*
X235285D02*
D03*
X229657Y135382D02*
D03*
X207411D02*
D03*
X244799Y125222D02*
D03*
X185166Y135128D02*
D03*
X140675D02*
D03*
X162921D02*
D03*
X118430Y134874D02*
D03*
X73939D02*
D03*
X96184D02*
D03*
X195348Y328847D02*
D03*
X182140D02*
D03*
X185166Y180466D02*
D03*
X196168D02*
D03*
X234879Y328847D02*
D03*
X217080D02*
D03*
X251262Y184087D02*
D03*
X234233D02*
D03*
X234879Y344864D02*
D03*
X217080D02*
D03*
X181483D02*
D03*
X199282D02*
D03*
X250616Y169418D02*
D03*
X217850Y184087D02*
D03*
X217204Y169418D02*
D03*
X234233D02*
D03*
X611483Y10922D02*
D03*
X591257D02*
D03*
X571031D02*
D03*
X550805Y10922D02*
D03*
X530578D02*
D03*
X510352D02*
D03*
X490126D02*
D03*
X469900D02*
D03*
X450596D02*
D03*
X430370D02*
D03*
X410144D02*
D03*
X389917D02*
D03*
X369691D02*
D03*
X349465Y10922D02*
D03*
X329239D02*
D03*
X309013D02*
D03*
Y27940D02*
D03*
Y44450D02*
D03*
Y64676D02*
D03*
Y84902D02*
D03*
X288787Y10922D02*
D03*
X269483D02*
D03*
X249256D02*
D03*
X229030D02*
D03*
X208804D02*
D03*
X188578D02*
D03*
X168352Y10922D02*
D03*
X148126D02*
D03*
X127899D02*
D03*
X107673D02*
D03*
X87447Y10922D02*
D03*
X67221D02*
D03*
X692658Y71964D02*
D03*
Y92191D02*
D03*
Y112417D02*
D03*
Y132643D02*
D03*
Y152869D02*
D03*
Y173095D02*
D03*
Y193321D02*
D03*
Y213548D02*
D03*
Y233774D02*
D03*
Y254000D02*
D03*
Y274226D02*
D03*
X692658Y294452D02*
D03*
Y314678D02*
D03*
Y334905D02*
D03*
Y355131D02*
D03*
Y375357D02*
D03*
Y395583D02*
D03*
Y415809D02*
D03*
X610590Y490982D02*
D03*
X590364D02*
D03*
X570138D02*
D03*
X549912Y490982D02*
D03*
X529686D02*
D03*
X509459D02*
D03*
X489233D02*
D03*
X469007D02*
D03*
X449703D02*
D03*
X429477D02*
D03*
X409251D02*
D03*
X389025D02*
D03*
X368798D02*
D03*
X348572Y490982D02*
D03*
X328346D02*
D03*
X308120D02*
D03*
Y473456D02*
D03*
Y454754D02*
D03*
Y435798D02*
D03*
Y418111D02*
D03*
X225044Y443738D02*
D03*
X206756D02*
D03*
X188976D02*
D03*
X198882Y460756D02*
D03*
X136454Y443992D02*
D03*
X115570D02*
D03*
X94686D02*
D03*
X94559Y408432D02*
D03*
X115443D02*
D03*
X136327D02*
D03*
X536194Y148336D02*
D03*
Y104394D02*
D03*
X535432Y357632D02*
D03*
Y401574D02*
D03*
X314454Y406201D02*
D03*
Y395660D02*
D03*
X314315Y335649D02*
D03*
X173594Y70034D02*
D03*
Y93034D02*
D03*
X152710D02*
D03*
Y70034D02*
D03*
X131826D02*
D03*
Y93034D02*
D03*
X314198Y171341D02*
D03*
X314452Y111125D02*
D03*
Y100584D02*
D03*
X17454Y380492D02*
D03*
Y404876D02*
D03*
X184735Y478028D02*
D03*
X162814D02*
D03*
X140208D02*
D03*
X117348Y477419D02*
D03*
X94742D02*
D03*
X69088Y477019D02*
D03*
X17855Y433971D02*
D03*
X16002Y355346D02*
D03*
Y330454D02*
D03*
Y304844D02*
D03*
Y278892D02*
D03*
Y254508D02*
D03*
Y229108D02*
D03*
X16256Y201930D02*
D03*
X16764Y149872D02*
D03*
X27178Y166370D02*
D03*
Y149872D02*
D03*
Y133375D02*
D03*
X16764Y166370D02*
D03*
Y133375D02*
D03*
X76788Y351416D02*
D03*
X87219Y283609D02*
D03*
X86711Y309009D02*
D03*
Y334409D02*
D03*
X111760Y292862D02*
D03*
X120650Y318516D02*
D03*
X128270Y343762D02*
D03*
X116840Y227330D02*
D03*
X130302Y236363D02*
D03*
X139700Y243840D02*
D03*
Y279400D02*
D03*
X158750Y269308D02*
D03*
X241300Y297180D02*
D03*
X256730D02*
D03*
X241300Y209550D02*
D03*
X256730D02*
D03*
X241300Y222250D02*
D03*
X271780D02*
D03*
X256730D02*
D03*
X241300Y284480D02*
D03*
X271780D02*
D03*
X256730D02*
D03*
Y270564D02*
D03*
Y236812D02*
D03*
X271780Y254510D02*
D03*
X241300D02*
D03*
X414020Y254000D02*
D03*
X434246D02*
D03*
X454472D02*
D03*
X474698D02*
D03*
X494925D02*
D03*
X515151D02*
D03*
X535377D02*
D03*
X555603D02*
D03*
X575829D02*
D03*
X596056Y254000D02*
D03*
X616282D02*
D03*
X636508D02*
D03*
X656734D02*
D03*
X676960D02*
D03*
X651578Y127000D02*
D03*
X631352D02*
D03*
X611126D02*
D03*
X590900D02*
D03*
X570674D02*
D03*
X650308Y379222D02*
D03*
X630082D02*
D03*
X609856D02*
D03*
X589630D02*
D03*
X569404D02*
D03*
X470277Y101600D02*
D03*
Y83185D02*
D03*
X470277Y64770D02*
D03*
Y46355D02*
D03*
X469900Y27940D02*
D03*
X470277Y222250D02*
D03*
Y203835D02*
D03*
X470277Y185420D02*
D03*
Y167005D02*
D03*
X469900Y148590D02*
D03*
X469384Y355042D02*
D03*
Y336627D02*
D03*
X469384Y318212D02*
D03*
Y299797D02*
D03*
X469007Y281382D02*
D03*
X468630Y401320D02*
D03*
X469007Y419735D02*
D03*
Y438150D02*
D03*
X469007Y456565D02*
D03*
Y474980D02*
D03*
X174580Y206618D02*
D03*
X121111Y211756D02*
D03*
X363728Y195512D02*
D03*
Y180162D02*
D03*
Y165626D02*
D03*
Y151420D02*
D03*
Y136218D02*
D03*
X550447Y127000D02*
D03*
X530221D02*
D03*
X509995D02*
D03*
X489769D02*
D03*
X469543D02*
D03*
X449316D02*
D03*
X429090D02*
D03*
X408864D02*
D03*
X388638D02*
D03*
X387368Y380020D02*
D03*
X407594D02*
D03*
X427820D02*
D03*
X448046D02*
D03*
X468273D02*
D03*
X488499D02*
D03*
X508725D02*
D03*
X528951D02*
D03*
X549177D02*
D03*
X363728Y370802D02*
D03*
Y355600D02*
D03*
Y341394D02*
D03*
Y326858D02*
D03*
Y311508D02*
D03*
X358394Y209296D02*
D03*
X312674Y234010D02*
D03*
Y273010D02*
D03*
X358394Y297724D02*
D03*
X271780Y270564D02*
D03*
X256730Y254510D02*
D03*
X241300Y270564D02*
D03*
X271780Y236812D02*
D03*
X241300D02*
D03*
D39*
X295610Y256760D02*
X326922D01*
X330667Y260505D01*
X358394D01*
X326882Y250260D02*
X330707Y246435D01*
X358394D01*
X295610Y250260D02*
X326882D01*
X314286Y335678D02*
Y345309D01*
X314257Y345338D02*
X314286Y345309D01*
Y335678D02*
X314315Y335649D01*
X314198Y171341D02*
X314227Y171312D01*
Y161681D02*
X314257Y161652D01*
X314227Y161681D02*
Y171312D01*
X76797Y351425D02*
Y359945D01*
X87229Y283600D02*
X95749D01*
X86721Y309000D02*
X95241D01*
X86721Y334400D02*
X95241D01*
X48514Y191516D02*
X135128D01*
X167765D01*
X135128D02*
X140462Y196850D01*
X189611Y215855D02*
X191516Y217760D01*
X217850D01*
X189611Y215510D02*
Y215855D01*
X140462Y196850D02*
Y211963D01*
X174373Y206825D02*
Y215809D01*
X167765Y191516D02*
X174623Y198374D01*
X185166D01*
X195348Y297180D02*
Y304034D01*
X196768Y295760D02*
X217850D01*
X195348Y297180D02*
X196768Y295760D01*
X182140Y293510D02*
Y304038D01*
Y293510D02*
X186390Y289260D01*
X217850D01*
X121318Y211963D02*
X130302D01*
X295610Y224260D02*
X314111D01*
X330667Y207704D01*
X339598D01*
X330667Y299316D02*
X339598D01*
X314111Y282760D02*
X330667Y299316D01*
X295610Y282760D02*
X314111D01*
D40*
X200545Y211260D02*
X217850D01*
X196295Y207010D02*
X200545Y211260D01*
X196168Y198247D02*
X196295Y198374D01*
X196088Y198247D02*
X196168D01*
X196295Y198374D02*
Y207010D01*
D41*
X190627Y198311D02*
D03*
D42*
X135382Y221361D02*
D03*
D43*
X295610Y250260D02*
D03*
D44*
X48514Y242316D02*
D03*
Y267716D02*
D03*
Y394716D02*
D03*
Y369316D02*
D03*
Y343916D02*
D03*
Y318516D02*
D03*
Y293116D02*
D03*
Y191516D02*
D03*
Y216916D02*
D03*
D45*
Y420116D02*
D03*
D46*
X51308Y133350D02*
D03*
X623062Y101600D02*
D03*
Y353822D02*
D03*
D47*
X51308Y82550D02*
D03*
X623062Y152400D02*
D03*
Y404622D02*
D03*
M02*
