G04*
G04 #@! TF.GenerationSoftware,Altium Limited,Altium Designer,24.10.1 (45)*
G04*
G04 Layer_Color=8421504*
%FSLAX44Y44*%
%MOMM*%
G71*
G04*
G04 #@! TF.SameCoordinates,D9CC4E6A-2C68-4F5F-81DB-F534FF38BD19*
G04*
G04*
G04 #@! TF.FilePolarity,Positive*
G04*
G01*
G75*
%ADD15R,6.5000X2.3000*%
%ADD16R,0.7620X0.8890*%
%ADD17R,1.0160X1.5240*%
%ADD18R,3.5000X4.0000*%
%ADD19R,0.6350X0.4572*%
%ADD20R,0.8890X0.7620*%
%ADD21R,4.1100X4.3600*%
%ADD22R,1.6750X0.4500*%
%ADD23R,1.5240X1.0160*%
D15*
X108260Y427990D02*
D03*
X210256D02*
D03*
X254706Y81534D02*
D03*
X152710D02*
D03*
D16*
X314257Y161652D02*
D03*
X299017D02*
D03*
X189611Y215510D02*
D03*
X174371D02*
D03*
X299017Y345338D02*
D03*
X314257D02*
D03*
D17*
X293880Y362259D02*
D03*
X314200D02*
D03*
X293878Y125222D02*
D03*
X314198D02*
D03*
Y144526D02*
D03*
X293878D02*
D03*
X293880Y382325D02*
D03*
X314200D02*
D03*
D18*
X515872Y320802D02*
D03*
X420872D02*
D03*
X515872Y438222D02*
D03*
X420872D02*
D03*
X515872Y185674D02*
D03*
X420872D02*
D03*
X515872Y68382D02*
D03*
X420872D02*
D03*
D19*
X76806Y369353D02*
D03*
Y359955D02*
D03*
X95250Y343789D02*
D03*
Y334391D02*
D03*
Y318389D02*
D03*
Y308991D02*
D03*
X95758Y292989D02*
D03*
Y283591D02*
D03*
X140462Y221361D02*
D03*
Y211963D02*
D03*
X130302D02*
D03*
Y221361D02*
D03*
X185166Y188976D02*
D03*
Y198374D02*
D03*
X196088Y188849D02*
D03*
Y198247D02*
D03*
D20*
X339598Y192488D02*
D03*
Y207728D02*
D03*
X182140Y304038D02*
D03*
Y319278D02*
D03*
X195348Y304034D02*
D03*
Y319274D02*
D03*
X358394Y275745D02*
D03*
Y260505D02*
D03*
X339598Y314556D02*
D03*
Y299316D02*
D03*
X358394Y231195D02*
D03*
Y246435D02*
D03*
D21*
X256730Y253510D02*
D03*
D22*
X295610Y302260D02*
D03*
Y295760D02*
D03*
Y289260D02*
D03*
Y282760D02*
D03*
Y276260D02*
D03*
Y269760D02*
D03*
Y263260D02*
D03*
Y256760D02*
D03*
Y250260D02*
D03*
Y243760D02*
D03*
Y237260D02*
D03*
Y230760D02*
D03*
Y224260D02*
D03*
Y217760D02*
D03*
Y211260D02*
D03*
Y204760D02*
D03*
X217850D02*
D03*
Y211260D02*
D03*
Y217760D02*
D03*
Y224260D02*
D03*
Y230760D02*
D03*
Y237260D02*
D03*
Y243760D02*
D03*
Y250260D02*
D03*
Y256760D02*
D03*
Y263260D02*
D03*
Y269760D02*
D03*
Y276260D02*
D03*
Y282760D02*
D03*
Y289260D02*
D03*
Y295760D02*
D03*
Y302260D02*
D03*
D23*
X551688Y356108D02*
D03*
Y335788D02*
D03*
Y103632D02*
D03*
Y83312D02*
D03*
Y150368D02*
D03*
Y170688D02*
D03*
Y403352D02*
D03*
Y423672D02*
D03*
M02*
