G04*
G04 #@! TF.GenerationSoftware,Altium Limited,Altium Designer,24.10.1 (45)*
G04*
G04 Layer_Color=65535*
%FSLAX44Y44*%
%MOMM*%
G71*
G04*
G04 #@! TF.SameCoordinates,D9CC4E6A-2C68-4F5F-81DB-F534FF38BD19*
G04*
G04*
G04 #@! TF.FilePolarity,Positive*
G04*
G01*
G75*
%ADD10C,0.1270*%
%ADD11C,0.0032*%
%ADD12C,0.2000*%
%ADD13C,0.1778*%
%ADD14C,0.2540*%
G36*
X89691Y37161D02*
X87670D01*
Y50130D01*
X89691D01*
Y37161D01*
D02*
G37*
G36*
X693498Y405130D02*
X674038D01*
Y408162D01*
X693498D01*
Y405130D01*
D02*
G37*
G36*
X683486Y355940D02*
X690114D01*
Y353154D01*
X683486D01*
Y346456D01*
X680666D01*
Y353154D01*
X674038D01*
Y355940D01*
X680666D01*
Y362568D01*
X683486D01*
Y355940D01*
D02*
G37*
G36*
X694260Y152908D02*
X674800D01*
Y155940D01*
X694260D01*
Y152908D01*
D02*
G37*
G36*
X684248Y101178D02*
X690876D01*
Y98392D01*
X684248D01*
Y91694D01*
X681428D01*
Y98392D01*
X674800D01*
Y101178D01*
X681428D01*
Y107806D01*
X684248D01*
Y101178D01*
D02*
G37*
G36*
X685891Y395245D02*
X686208D01*
X686948Y395210D01*
X687724Y395104D01*
X688570Y394999D01*
X689345Y394822D01*
X689733Y394717D01*
X690051Y394611D01*
X690086D01*
X690121Y394576D01*
X690333Y394470D01*
X690650Y394329D01*
X691038Y394082D01*
X691461Y393765D01*
X691919Y393342D01*
X692342Y392848D01*
X692765Y392284D01*
Y392249D01*
X692801Y392214D01*
X692942Y392002D01*
X693083Y391649D01*
X693294Y391191D01*
X693470Y390662D01*
X693647Y390028D01*
X693752Y389358D01*
X693788Y388618D01*
Y388582D01*
Y388512D01*
Y388371D01*
X693752Y388194D01*
Y387948D01*
X693717Y387701D01*
X693576Y387102D01*
X693365Y386396D01*
X693083Y385656D01*
X692660Y384916D01*
X692377Y384563D01*
X692095Y384211D01*
X692060Y384175D01*
X692025Y384140D01*
X691919Y384034D01*
X691778Y383928D01*
X691602Y383787D01*
X691390Y383647D01*
X691108Y383470D01*
X690826Y383259D01*
X690474Y383082D01*
X690086Y382906D01*
X689663Y382695D01*
X689204Y382518D01*
X688676Y382377D01*
X688147Y382201D01*
X687548Y382095D01*
X686913Y381990D01*
X686983Y381954D01*
X687124Y381884D01*
X687336Y381743D01*
X687618Y381602D01*
X688253Y381214D01*
X688570Y380967D01*
X688852Y380756D01*
X688923Y380685D01*
X689099Y380509D01*
X689381Y380227D01*
X689733Y379874D01*
X690121Y379381D01*
X690580Y378852D01*
X691038Y378217D01*
X691531Y377512D01*
X695727Y370884D01*
X691708D01*
X688499Y375961D01*
Y375996D01*
X688429Y376067D01*
X688358Y376172D01*
X688253Y376313D01*
X688006Y376701D01*
X687689Y377195D01*
X687301Y377724D01*
X686913Y378288D01*
X686525Y378816D01*
X686173Y379310D01*
X686137Y379345D01*
X686031Y379486D01*
X685855Y379698D01*
X685609Y379945D01*
X685080Y380474D01*
X684798Y380720D01*
X684516Y380932D01*
X684480Y380967D01*
X684410Y381002D01*
X684269Y381073D01*
X684057Y381179D01*
X683846Y381284D01*
X683599Y381390D01*
X683035Y381566D01*
X683000D01*
X682929Y381602D01*
X682788D01*
X682612Y381637D01*
X682365Y381672D01*
X682083D01*
X681695Y381707D01*
X677535D01*
Y370884D01*
X674292D01*
Y395281D01*
X685609D01*
X685891Y395245D01*
D02*
G37*
G36*
X680837Y122442D02*
X692859D01*
Y119551D01*
X677594D01*
Y143948D01*
X680837D01*
Y122442D01*
D02*
G37*
G36*
X89802Y176283D02*
X94078D01*
Y173370D01*
X89802D01*
Y169164D01*
X86959D01*
Y173370D01*
X82706D01*
Y176283D01*
X86959D01*
Y180489D01*
X89802D01*
Y176283D01*
D02*
G37*
%LPC*%
G36*
X685221Y392566D02*
X677535D01*
Y384493D01*
X684798D01*
X685221Y384528D01*
X685714Y384563D01*
X686278Y384598D01*
X686842Y384669D01*
X687406Y384775D01*
X687900Y384916D01*
X687971Y384951D01*
X688112Y385021D01*
X688323Y385127D01*
X688605Y385268D01*
X688923Y385480D01*
X689240Y385727D01*
X689557Y386044D01*
X689804Y386396D01*
X689839Y386432D01*
X689910Y386573D01*
X690015Y386784D01*
X690156Y387066D01*
X690262Y387383D01*
X690368Y387736D01*
X690438Y388159D01*
X690474Y388582D01*
Y388618D01*
Y388653D01*
X690438Y388864D01*
X690403Y389182D01*
X690333Y389605D01*
X690156Y390028D01*
X689945Y390521D01*
X689628Y390980D01*
X689204Y391438D01*
X689134Y391473D01*
X688958Y391614D01*
X688676Y391790D01*
X688217Y392002D01*
X687689Y392214D01*
X686983Y392390D01*
X686173Y392531D01*
X685221Y392566D01*
D02*
G37*
%LPD*%
D10*
X94488Y363220D02*
Y414179D01*
Y363220D02*
X198628D01*
X224028Y388620D01*
Y414020D01*
Y441801D02*
Y467360D01*
X198628Y492760D02*
X224028Y467360D01*
X94488Y492760D02*
X198628D01*
X94488Y441801D02*
Y492760D01*
X230886Y407670D02*
Y414782D01*
X227330Y411226D02*
X234442D01*
X311209Y166986D02*
X319083D01*
X311209Y156318D02*
X319083D01*
Y166986D01*
X294191D02*
X302065D01*
X294191Y156318D02*
X302065D01*
X294191D02*
Y166986D01*
X287784Y353623D02*
Y370895D01*
Y353623D02*
X297944D01*
X287784Y370895D02*
X297944D01*
X320296Y353623D02*
Y370895D01*
X310136Y353623D02*
X320296D01*
X310136Y370895D02*
X320296D01*
X287782Y116586D02*
Y133858D01*
Y116586D02*
X297942D01*
X287782Y133858D02*
X297942D01*
X320294Y116586D02*
Y133858D01*
X310134Y116586D02*
X320294D01*
X310134Y133858D02*
X320294D01*
X310134Y153162D02*
X320294D01*
X310134Y135890D02*
X320294D01*
Y153162D01*
X287782D02*
X297942D01*
X287782Y135890D02*
X297942D01*
X287782D02*
Y153162D01*
X287784Y373689D02*
Y390961D01*
Y373689D02*
X297944D01*
X287784Y390961D02*
X297944D01*
X320296Y373689D02*
Y390961D01*
X310136Y373689D02*
X320296D01*
X310136Y390961D02*
X320296D01*
X524760Y270510D02*
Y297434D01*
X414524Y270510D02*
X524760D01*
X414524D02*
Y297434D01*
X524760Y344170D02*
Y371094D01*
X414524D02*
X524760D01*
X414524Y344170D02*
Y371094D01*
X524760Y387930D02*
Y414854D01*
X414524Y387930D02*
X524760D01*
X414524D02*
Y414854D01*
X524760Y461590D02*
Y488514D01*
X414524D02*
X524760D01*
X414524Y461590D02*
Y488514D01*
X524760Y135382D02*
Y162306D01*
X414524Y135382D02*
X524760D01*
X414524D02*
Y162306D01*
X524760Y209042D02*
Y235966D01*
X414524D02*
X524760D01*
X414524Y209042D02*
Y235966D01*
X524760Y18090D02*
Y45014D01*
X414524Y18090D02*
X524760D01*
X414524D02*
Y45014D01*
X524760Y91750D02*
Y118674D01*
X414524D02*
X524760D01*
X414524Y91750D02*
Y118674D01*
X271780Y64770D02*
X278892D01*
X275336Y61214D02*
Y68326D01*
X138938Y95345D02*
Y146304D01*
X243078D01*
X268478Y120904D01*
Y95345D02*
Y120904D01*
Y42164D02*
Y67564D01*
X243078Y16764D02*
X268478Y42164D01*
X138938Y16764D02*
X243078D01*
X138938D02*
Y67723D01*
X5308Y57150D02*
Y158750D01*
Y57150D02*
X103308D01*
Y158750D01*
X5308D02*
X103308D01*
X334264Y187662D02*
X344932D01*
Y195536D01*
X334264Y187662D02*
Y195536D01*
Y212554D02*
X344932D01*
Y204680D02*
Y212554D01*
X334264Y204680D02*
Y212554D01*
X72742Y356780D02*
Y372528D01*
X80870D01*
X72742Y356780D02*
X80870D01*
Y372528D01*
X91186Y331216D02*
Y346964D01*
X99314D01*
X91186Y331216D02*
X99314D01*
Y346964D01*
X91186Y305816D02*
Y321564D01*
X99314D01*
X91186Y305816D02*
X99314D01*
Y321564D01*
X91694Y280416D02*
Y296164D01*
X99822D01*
X91694Y280416D02*
X99822D01*
Y296164D01*
X136398Y208788D02*
Y224536D01*
X144526D01*
X136398Y208788D02*
X144526D01*
Y224536D01*
X134366Y208788D02*
Y224536D01*
X126238Y208788D02*
X134366D01*
X126238Y224536D02*
X134366D01*
X126238Y208788D02*
Y224536D01*
X194437Y210176D02*
Y220844D01*
X186563D02*
X194437D01*
X186563Y210176D02*
X194437D01*
X169545D02*
Y220844D01*
X177419D01*
X169545Y210176D02*
X177419D01*
X181102Y185801D02*
X189230D01*
X181102D02*
Y190881D01*
X189230Y185801D02*
Y190881D01*
X181102Y201549D02*
X189230D01*
X181102Y196469D02*
Y201549D01*
X189230Y196469D02*
Y201549D01*
X192024Y185674D02*
X200152D01*
X192024D02*
Y190754D01*
X200152Y185674D02*
Y190754D01*
X192024Y201422D02*
X200152D01*
X192024Y196342D02*
Y201422D01*
X200152Y196342D02*
Y201422D01*
X176806Y299212D02*
X187474D01*
Y307086D01*
X176806Y299212D02*
Y307086D01*
Y324104D02*
X187474D01*
Y316230D02*
Y324104D01*
X176806Y316230D02*
Y324104D01*
X190014Y299208D02*
X200682D01*
Y307082D01*
X190014Y299208D02*
Y307082D01*
Y324100D02*
X200682D01*
Y316226D02*
Y324100D01*
X190014Y316226D02*
Y324100D01*
X294191Y340004D02*
Y350672D01*
Y340004D02*
X302065D01*
X294191Y350672D02*
X302065D01*
X319083Y340004D02*
Y350672D01*
X311209Y340004D02*
X319083D01*
X311209Y350672D02*
X319083D01*
X353060Y280571D02*
X363728D01*
X353060Y272697D02*
Y280571D01*
X363728Y272697D02*
Y280571D01*
X353060Y255679D02*
X363728D01*
X353060D02*
Y263553D01*
X363728Y255679D02*
Y263553D01*
X334264Y319382D02*
X344932D01*
X334264Y311508D02*
Y319382D01*
X344932Y311508D02*
Y319382D01*
X334264Y294490D02*
X344932D01*
X334264D02*
Y302364D01*
X344932Y294490D02*
Y302364D01*
X353060Y226369D02*
X363728D01*
Y234243D01*
X353060Y226369D02*
Y234243D01*
Y251261D02*
X363728D01*
Y243387D02*
Y251261D01*
X353060Y243387D02*
Y251261D01*
X543052Y352044D02*
Y362204D01*
X560324Y352044D02*
Y362204D01*
X543052D02*
X560324D01*
X543052Y329692D02*
Y339852D01*
X560324Y329692D02*
Y339852D01*
X543052Y329692D02*
X560324D01*
X543052Y99568D02*
Y109728D01*
X560324Y99568D02*
Y109728D01*
X543052D02*
X560324D01*
X543052Y77216D02*
Y87376D01*
X560324Y77216D02*
Y87376D01*
X543052Y77216D02*
X560324D01*
X571062Y76200D02*
X669062D01*
X571062D02*
Y177800D01*
X669062D01*
Y76200D02*
Y177800D01*
X560324Y144272D02*
Y154432D01*
X543052Y144272D02*
Y154432D01*
Y144272D02*
X560324D01*
Y166624D02*
Y176784D01*
X543052Y166624D02*
Y176784D01*
X560324D01*
Y397256D02*
Y407416D01*
X543052Y397256D02*
Y407416D01*
Y397256D02*
X560324D01*
Y419608D02*
Y429768D01*
X543052Y419608D02*
Y429768D01*
X560324D01*
X571062Y328422D02*
X669062D01*
X571062D02*
Y430022D01*
X669062D01*
Y328422D02*
Y430022D01*
D11*
X72488Y356526D02*
Y372782D01*
X90932Y330962D02*
Y347218D01*
Y305562D02*
Y321818D01*
X91440Y280162D02*
Y296418D01*
X136144Y208534D02*
Y224790D01*
X134620Y208534D02*
Y224790D01*
D12*
X209480Y308010D02*
X226230D01*
D13*
X3928Y193577D02*
Y187229D01*
X7102D01*
X8160Y188287D01*
Y192519D01*
X7102Y193577D01*
X3928D01*
X10276D02*
Y189345D01*
X12392Y187229D01*
X14507Y189345D01*
Y193577D01*
X16624D02*
Y187229D01*
X19798D01*
X20856Y188287D01*
Y192519D01*
X19798Y193577D01*
X16624D01*
X22971D02*
Y187229D01*
X26145D01*
X27203Y188287D01*
Y192519D01*
X26145Y193577D01*
X22971D01*
X3928Y219030D02*
Y212682D01*
X8160D01*
X10276D02*
Y219030D01*
X13450D01*
X14507Y217972D01*
Y215856D01*
X13450Y214798D01*
X10276D01*
X12392D02*
X14507Y212682D01*
X20856Y217972D02*
X19798Y219030D01*
X17681D01*
X16624Y217972D01*
Y213740D01*
X17681Y212682D01*
X19798D01*
X20856Y213740D01*
X22971Y219030D02*
Y212682D01*
X27203D01*
X29319Y219030D02*
Y212682D01*
Y214798D01*
X33551Y219030D01*
X30377Y215856D01*
X33551Y212682D01*
X3928Y244483D02*
Y238135D01*
X7102D01*
X8160Y239193D01*
Y240251D01*
X7102Y241309D01*
X3928D01*
X7102D01*
X8160Y242367D01*
Y243425D01*
X7102Y244483D01*
X3928D01*
X14507Y243425D02*
X13450Y244483D01*
X11334D01*
X10276Y243425D01*
Y239193D01*
X11334Y238135D01*
X13450D01*
X14507Y239193D01*
X16624Y244483D02*
Y238135D01*
X20856D01*
X22971Y244483D02*
Y238135D01*
Y240251D01*
X27203Y244483D01*
X24029Y241309D01*
X27203Y238135D01*
X8160Y268878D02*
X7102Y269936D01*
X4986D01*
X3928Y268878D01*
Y267820D01*
X4986Y266762D01*
X7102D01*
X8160Y265704D01*
Y264646D01*
X7102Y263588D01*
X4986D01*
X3928Y264646D01*
X10276Y269936D02*
Y263588D01*
X13450D01*
X14507Y264646D01*
Y268878D01*
X13450Y269936D01*
X10276D01*
X16624D02*
X18740D01*
X17681D01*
Y263588D01*
X16624D01*
X18740D01*
X21913D02*
Y269936D01*
X26145Y263588D01*
Y269936D01*
X8160Y294331D02*
X7102Y295389D01*
X4986D01*
X3928Y294331D01*
Y290099D01*
X4986Y289041D01*
X7102D01*
X8160Y290099D01*
Y292215D01*
X6044D01*
X10276Y289041D02*
Y295389D01*
X13450D01*
X14507Y294331D01*
Y292215D01*
X13450Y291157D01*
X10276D01*
X16624Y295389D02*
X18740D01*
X17681D01*
Y289041D01*
X16624D01*
X18740D01*
X25087Y295389D02*
X22971D01*
X21913Y294331D01*
Y290099D01*
X22971Y289041D01*
X25087D01*
X26145Y290099D01*
Y294331D01*
X25087Y295389D01*
X28261Y294331D02*
X29319Y295389D01*
X31435D01*
X32493Y294331D01*
Y290099D01*
X31435Y289041D01*
X29319D01*
X28261Y290099D01*
Y294331D01*
X8160Y319784D02*
X7102Y320842D01*
X4986D01*
X3928Y319784D01*
Y315552D01*
X4986Y314494D01*
X7102D01*
X8160Y315552D01*
Y317668D01*
X6044D01*
X10276Y314494D02*
Y320842D01*
X13450D01*
X14507Y319784D01*
Y317668D01*
X13450Y316610D01*
X10276D01*
X16624Y320842D02*
X18740D01*
X17681D01*
Y314494D01*
X16624D01*
X18740D01*
X25087Y320842D02*
X22971D01*
X21913Y319784D01*
Y315552D01*
X22971Y314494D01*
X25087D01*
X26145Y315552D01*
Y319784D01*
X25087Y320842D01*
X28261Y314494D02*
X30377D01*
X29319D01*
Y320842D01*
X28261Y319784D01*
X8160Y345237D02*
X7102Y346295D01*
X4986D01*
X3928Y345237D01*
Y341005D01*
X4986Y339947D01*
X7102D01*
X8160Y341005D01*
Y343121D01*
X6044D01*
X10276Y339947D02*
Y346295D01*
X13450D01*
X14507Y345237D01*
Y343121D01*
X13450Y342063D01*
X10276D01*
X16624Y346295D02*
X18740D01*
X17681D01*
Y339947D01*
X16624D01*
X18740D01*
X25087Y346295D02*
X22971D01*
X21913Y345237D01*
Y341005D01*
X22971Y339947D01*
X25087D01*
X26145Y341005D01*
Y345237D01*
X25087Y346295D01*
X32493Y339947D02*
X28261D01*
X32493Y344179D01*
Y345237D01*
X31435Y346295D01*
X29319D01*
X28261Y345237D01*
X3928Y365400D02*
Y371748D01*
X7102D01*
X8160Y370690D01*
Y368574D01*
X7102Y367516D01*
X3928D01*
X10276Y371748D02*
Y365400D01*
X13450D01*
X14507Y366458D01*
Y370690D01*
X13450Y371748D01*
X10276D01*
X16624Y365400D02*
Y371748D01*
X20856Y365400D01*
Y371748D01*
X8160Y396143D02*
X7102Y397201D01*
X4986D01*
X3928Y396143D01*
Y395085D01*
X4986Y394027D01*
X7102D01*
X8160Y392969D01*
Y391911D01*
X7102Y390853D01*
X4986D01*
X3928Y391911D01*
X14507Y396143D02*
X13450Y397201D01*
X11334D01*
X10276Y396143D01*
Y391911D01*
X11334Y390853D01*
X13450D01*
X14507Y391911D01*
X16624Y397201D02*
Y390853D01*
X20856D01*
X8160Y421596D02*
X7102Y422654D01*
X4986D01*
X3928Y421596D01*
Y420538D01*
X4986Y419480D01*
X7102D01*
X8160Y418422D01*
Y417364D01*
X7102Y416306D01*
X4986D01*
X3928Y417364D01*
X10276Y422654D02*
Y416306D01*
X13450D01*
X14507Y417364D01*
Y421596D01*
X13450Y422654D01*
X10276D01*
X16624Y416306D02*
Y420538D01*
X18740Y422654D01*
X20856Y420538D01*
Y416306D01*
Y419480D01*
X16624D01*
D14*
X289561Y31748D02*
X287022Y34288D01*
X281943D01*
X279404Y31748D01*
Y21592D01*
X281943Y19052D01*
X287022D01*
X289561Y21592D01*
X294639Y31748D02*
X297178Y34288D01*
X302257D01*
X304796Y31748D01*
Y29209D01*
X302257Y26670D01*
X299718D01*
X302257D01*
X304796Y24131D01*
Y21592D01*
X302257Y19052D01*
X297178D01*
X294639Y21592D01*
X581156Y288034D02*
Y272799D01*
X591313D01*
X604009D02*
Y288034D01*
X596391Y280416D01*
X606548D01*
X582782Y485900D02*
Y470664D01*
X592939D01*
X598017Y483360D02*
X600556Y485900D01*
X605635D01*
X608174Y483360D01*
Y480821D01*
X605635Y478282D01*
X603096D01*
X605635D01*
X608174Y475743D01*
Y473204D01*
X605635Y470664D01*
X600556D01*
X598017Y473204D01*
X581918Y236217D02*
Y220982D01*
X592075D01*
X607310D02*
X597153D01*
X607310Y231139D01*
Y233678D01*
X604771Y236217D01*
X599692D01*
X597153Y233678D01*
X582527Y34795D02*
Y19561D01*
X592684D01*
X597762D02*
X602841D01*
X600302D01*
Y34795D01*
X597762Y32256D01*
X652019Y317498D02*
X646941D01*
X649480D01*
Y304802D01*
X646941Y302262D01*
X644401D01*
X641862Y304802D01*
X667254Y302262D02*
X657097D01*
X667254Y312419D01*
Y314958D01*
X664715Y317498D01*
X659636D01*
X657097Y314958D01*
X656082Y198118D02*
X651004D01*
X653543D01*
Y185422D01*
X651004Y182882D01*
X648465D01*
X645925Y185422D01*
X661160Y182882D02*
X666239D01*
X663700D01*
Y198118D01*
X661160Y195578D01*
X247493Y487700D02*
X244954Y490239D01*
X239875D01*
X237336Y487700D01*
Y477544D01*
X239875Y475005D01*
X244954D01*
X247493Y477544D01*
X262728Y475005D02*
X252571D01*
X262728Y485161D01*
Y487700D01*
X260189Y490239D01*
X255110D01*
X252571Y487700D01*
M02*
